<?xml version="1.0" encoding="UTF-8"?>
<svg xmlns="http://www.w3.org/2000/svg" viewBox="0 0 349.2 121.44">
  <defs>
    <style>
      .cls-1 {
        font-family: CenturySchoolbook, 'Century Schoolbook';
        font-size: 28px;
      }

      .cls-2 {
        isolation: isolate;
      }
    </style>
  </defs>
  <g id="AswinSonuzz" class="cls-2">
    <g id="AswinSonuzz-2" data-name="AswinSonuzz">
      <path d="M73.91,26.31v-.02l-.02.02h.02ZM74.1,26.53c0-.09.09-.28.26-.58-.04.03-.09.06-.13.09-.07.06-.14.11-.21.17l-.11.11s.05.06.06.09l.13.13ZM87.95,59.38c-.49-.33-1.26-.59-2.31-.77-1.05-.19-2.25-.28-3.6-.28-.79,0-1.35-.01-1.68-.04-.33-.03-.65-.1-.97-.21-.57-.19-1.25-.35-2.03-.5-.78-.15-1.77-.32-2.95-.5-1.15-.17-1.98-.31-2.49-.42s-.77-.23-.77-.35c0-.01.03-.06.09-.13.2-.24.3-.48.3-.71v-.04s.04-.04.11-.04c.04,0,.11.01.21.04h.13s-.03-.04-.09-.09c-.09-.07-.13-.11-.13-.13l.09-.02c.2-.03.31-.09.32-.19.03-.09.21-.22.54-.41.24-.13.37-.21.37-.26v-.04s.21-.22.62-.58l.11.04c.07,0,.17-.08.3-.24.09-.1.14-.15.17-.15h.04s0,.02.02.02c.04,0,.11-.05.19-.15.13-.13.24-.19.32-.19.07,0,.12-.02.15-.06.06-.11.21-.21.47-.3.26-.11.41-.22.45-.32.01-.01.03-.02.04-.02s.04,0,.06.02h.04c.06,0,.13-.09.21-.28.09-.16.15-.24.19-.24.01,0,.06.02.13.06.07.07.12.11.15.11.01,0,.03-.05.04-.15.04-.19.1-.28.17-.28.01,0,.02.01.02.04,0,.01,0,.05-.02.11-.01.03-.02.05-.02.06s.01.02.04.02c.06,0,.24-.1.56-.31.31-.21.48-.34.49-.4.01-.01.03-.02.04-.02.03,0,.07.04.13.11.03.04.05.06.06.06l.02-.06c.03-.2.09-.3.19-.3.09,0,.15-.03.19-.09.07-.09.2-.13.39-.13.23-.03.41-.09.55-.19.14-.1.2-.19.2-.26,0-.01-.01-.02-.04-.02s-.11.03-.26.09c-.11.07-.19.11-.21.11-.04,0-.06-.06-.06-.19,0-.09.02-.13.06-.13h.02s.04.02.09.02c.06,0,.15-.02.28-.06s.22-.06.28-.06.1.01.14.04c.04.03.08.1.14.21.03.04.05.08.06.11v-.24c0-.1-.03-.19-.1-.27-.06-.08-.13-.12-.2-.12-.04,0-.08.03-.11.09-.03.06-.06.09-.09.09-.01,0-.04,0-.06-.02-.04-.04-.06-.08-.06-.11,0-.04.05-.09.16-.13s.21-.06.31-.06c.07,0,.11.01.11.04v.04l-.02.02c0,.06.04.12.11.19.07.07.14.11.19.11.03,0,.06-.04.09-.11.06-.1.13-.15.21-.15h.06s.04,0,.06.02c.14,0,.43-.1.85-.3.42-.2.63-.33.63-.39,0-.01,0-.02-.02-.02l-.09.04c-.13.06-.22.09-.28.09-.13,0-.19-.05-.19-.15s.08-.2.23-.3c.15-.1.26-.15.33-.15.03,0,.04.01.04.04,0,.06-.09.12-.28.19-.16.06-.24.11-.24.15l.02.02s.04.02.09.02c.07,0,.18-.03.32-.09.2-.07.37-.11.49-.11.06,0,.11,0,.17.02l.06.02s.06,0,.06-.02,0-.03-.02-.04c-.01-.03-.02-.05-.02-.06,0-.04.04-.08.11-.11l.06-.04s-.04-.03-.11-.04c-.13-.01-.19-.04-.19-.09s.06-.09.18-.15c.12-.06.23-.09.31-.09.06,0,.09.04.09.11,0,.03,0,.08-.02.15-.01.09-.02.14-.02.17,0,.09.02.13.06.13s.08-.1.11-.3c.03-.3.1-.45.21-.45.09,0,.14.04.17.13.03.09.06.23.09.43v.02l.02-.32c-.01-.24.13-.37.43-.37.16-.01.34-.04.54-.09.11-.01.19-.02.21-.02.07,0,.11.01.11.04,0,.2.03.5.1.89.06.39.17.8.31,1.21.24-.47.42-.89.52-1.27.1-.37.15-.82.15-1.35,0-.8-.15-1.34-.45-1.61-.19-.17-.47-.32-.85-.45-.38-.13-.71-.19-1-.19-.26,0-.42.05-.47.15-.07.07-.22.11-.45.11-.63.06-1.91.51-3.83,1.35-1.55.68-2.8,1.3-3.79,1.88-.03-.24-.08-.44-.15-.59-.11-.26-.47-.69-1.05-1.3-.59-.61-.95-.91-1.07-.91-.04,0-.21-.11-.52-.32-.62-.47-2.03-1.17-4.23-2.11-.73-.31-1.12-.49-1.16-.54-.09-.11-.29-.22-.6-.32-.3-.09-.53-.26-.69-.52-.09-.13-.17-.19-.26-.19-.03,0-.05.02-.06.06-.03.07-.09.11-.19.11-.14,0-.21-.03-.21-.09l.02-.04c.04-.07.06-.13.06-.17,0-.03,0-.06-.02-.09-.01-.01-.02-.03-.02-.04,0-.03.03-.04.09-.04.04,0,.08.02.11.06.06.09.16.13.32.13.11,0,.24-.01.37-.04.06-.01.09-.06.09-.13,0-.16-.12-.36-.37-.6-.16-.16-.24-.27-.24-.34,0-.01,0-.02.02-.02s.05.03.11.09c.11.13.21.19.28.19.03,0,.06,0,.09-.02l.06-.02s.05.04.06.13c.01.04.03.06.04.06.1-.07.15-.17.15-.3,0-.1-.04-.15-.11-.15-.03,0-.06,0-.09.02l-.04.02s-.09-.04-.15-.11l-.02-.06v-.02h.04s.04.02.06.02c.07,0,.15-.11.24-.32.07-.19.14-.28.19-.28.03,0,.06.01.11.04.04.03.09.04.13.04.09,0,.2-.07.35-.2.15-.14.23-.23.23-.29,0-.01-.01-.02-.04-.02s-.07,0-.13.02c-.07.03-.11.04-.13.04-.04,0-.06-.01-.06-.04,0-.06.11-.18.34-.37.04-.03.07-.05.09-.06-.04.01-.09.04-.15.09-.16.07-.26.13-.31.17-.05.04-.08.11-.08.19,0,.03,0,.08.02.15.01.04.02.07.02.09v.04s-.06-.02-.11-.08c-.04-.05-.06-.1-.06-.16,0-.19.19-.4.56-.64.17-.11.26-.2.26-.26v-.02l-.04.04c-.06.1-.11.15-.17.15s-.09-.02-.09-.06l.02-.04s.02-.03.02-.04c0-.06-.06-.09-.19-.09-.17,0-.35.06-.54.19-.13.09-.24.13-.32.13h-.06s-.06-.03-.06-.04c0-.04.06-.08.19-.11.13-.06.23-.15.3-.28.04-.1.12-.17.24-.21h.11c.1,0,.15.05.15.15,0,.06.02.09.06.09.03,0,.08-.01.15-.04.11-.04.19-.06.24-.06.06,0,.09,0,.11.02l.04.02s-.02-.09-.05-.13c-.04-.04-.08-.06-.14-.06h-.04l-.04.02s-.02-.01-.02-.04c0-.06.02-.12.08-.18.05-.06.1-.1.14-.1.06,0,.09.04.11.13,0,.04,0,.06.02.06.06,0,.13-.06.2-.17.08-.11.12-.21.12-.3,0-.01,0-.04-.02-.06v-.04c0-.07.04-.14.13-.21.09-.07.17-.11.26-.11.03,0,.06.01.11.04,0,.01,0,.02.02.02s.02-.04.02-.11v-.24c0-.13.04-.19.11-.19h.06s.06,0,.06-.02c0-.03-.02-.09-.06-.17-.06-.1-.09-.16-.09-.19,0-.06.06-.09.17-.09.14,0,.21-.04.21-.11-.03-.13-.07-.19-.13-.19-.01,0-.03,0-.04.02-.03.03-.06.04-.09.04-.04,0-.09-.03-.15-.09-.06-.06-.09-.11-.09-.15s.05-.09.15-.15c.1-.06.17-.09.21-.09s.06.04.06.11c0,.04.01.06.04.06.01,0,.05-.02.11-.06.1-.07.17-.11.21-.11l.09.04.02-.02-.02-.02s-.11-.08-.26-.15c-.46-.27-.69-.47-.69-.6,0-.01,0-.02.02-.02l.04.06c.13.19.24.28.32.28.03,0,.04-.01.04-.04,0-.04-.03-.09-.09-.15-.1-.16-.16-.27-.19-.34h-.04c-.06,0-.29.06-.69.17.01-.01.04-.03.06-.04.19-.1.33-.17.44-.21s.23-.06.35-.06c.19,0,.28.04.28.13,0,.01,0,.04-.02.09-.03.07-.04.14-.04.21,0,.23.11.34.34.34.13,0,.26-.05.39-.15.13-.1.19-.2.19-.3,0-.07-.03-.11-.09-.11-.03,0-.07.02-.13.06l-.04.02-.02-.02c.06-.1.17-.18.34-.24.1-.03.15-.06.15-.11,0-.06-.1-.09-.3-.09-.06,0-.14,0-.26.02h-.11s-.06,0-.06-.02l.11-.09c.16-.13.24-.22.24-.28,0-.03,0-.04-.02-.04s-.04.01-.09.04c-.04.01-.07.02-.09.02-.04,0-.06-.02-.06-.06,0-.09-.19-.14-.58-.17-.13,0-.19,0-.19-.02l.11-.04c.36-.1.54-.19.54-.26v-.02s-.04.01-.06.04c-.06.01-.09.02-.11.02s-.02-.01-.02-.04c0-.04.02-.09.05-.14.04-.05.08-.08.12-.08.01,0,.04,0,.06.02l.02.02s.04-.03.04-.09c0-.04-.01-.11-.04-.21v-.13l.02.04c.04.07.09.11.13.11l.04-.02h.04c.07,0,.13.03.17.09l.02.06s0,.02-.02.02l-.02-.02h-.04c-.07,0-.11.1-.11.3.01.26.1.39.26.39.1,0,.25-.11.45-.34.03-.04.06-.08.09-.11-.04.03-.1.07-.17.13-.11.09-.19.13-.24.13-.03,0-.04-.01-.04-.04,0-.06.04-.12.11-.19.06-.06.09-.1.09-.13,0-.04-.03-.11-.09-.19-.03-.03-.04-.05-.04-.06h.02s.15.11.37.32c.06.04.1.08.13.11l.02-.26c0-.13-.03-.19-.09-.19h-.04v.02s-.07-.06-.09-.19c-.03-.19-.09-.28-.17-.28-.06,0-.09.07-.11.21,0,.03,0,.04-.02.04l-.02-.04c-.04-.1-.09-.15-.13-.15-.01,0-.05.02-.11.06-.06.04-.11.06-.15.06-.1,0-.15-.05-.15-.15,0-.06.02-.11.06-.17.04-.06.08-.09.11-.09l.02.02s-.01.06-.04.13c-.01.09-.02.14-.02.15.03,0,.11-.09.26-.27.14-.18.21-.31.21-.4l-.02-.13s.05-.1.16-.17c.11-.07.2-.11.29-.11.01,0,.02.01.02.04,0,.01,0,.04-.02.06-.09.17-.13.37-.13.58.03.36.08.54.15.54.01,0,.03-.02.04-.06.01-.07.04-.11.06-.11.09.01.13.06.13.15,0,.03,0,.06-.02.11-.01.01-.02.03-.02.04h.02l.06-.02c.07-.06.11-.11.11-.15,0-.01,0-.04-.02-.06l-.02-.04s.02-.06.06-.11c.16-.14.24-.34.24-.58,0-.11-.03-.19-.09-.21-.04-.01-.06-.06-.06-.13,0-.14.05-.26.14-.37.09-.1.17-.15.23-.15.04,0,.06.03.06.09s.01.09.04.09.1-.04.21-.13c.06-.06.11-.1.15-.13-.03-.01-.07-.03-.13-.04-.24-.1-.37-.18-.37-.24,0-.01,0-.04.02-.06.01-.01.02-.03.02-.04,0-.1-.04-.15-.11-.15-.04,0-.09.04-.13.13-.06.09-.11.13-.15.13-.03,0-.06,0-.09-.02l-.09-.04-.02.02s.02.04.06.09c.09.11.13.19.13.24s-.01.08-.04.11h-.04c-.07,0-.14-.06-.21-.17-.07-.11-.11-.21-.11-.3,0-.11.05-.17.15-.17.01,0,.04,0,.06.02.03.01.05.02.06.02.04,0,.07-.03.09-.09v-.13c.01-.07.02-.12.02-.15.03-.09.13-.14.3-.17.14,0,.21.01.21.04v.04c0,.07.04.15.13.24.03.01.06.02.09.02.04,0,.06-.04.06-.11,0-.16-.03-.26-.09-.32-.03-.03-.04-.06-.04-.11,0-.06.11-.09.32-.09.17,0,.28.05.32.15,0,.03-.01.04-.04.04-.01,0-.06-.01-.13-.04-.07-.01-.12-.02-.15-.02-.06,0-.09.03-.09.09l.02.15s.02.09.02.13c0,.11-.09.24-.28.39-.06.06-.09.09-.09.11h.02s.08,0,.15.02c.09.01.14.02.17.02.09,0,.13-.03.13-.09v-.02c0-.07.04-.11.11-.11h.04c.09,0,.14-.1.15-.3.01-.16.04-.24.09-.24h.04s.03.02.04.02c.07,0,.11-.08.11-.24,0-.06,0-.1-.02-.13v-.04c0-.06.04-.12.13-.19.07-.04.11-.08.11-.11s-.03-.07-.09-.13c-.07-.11-.11-.21-.11-.3,0-.04,0-.09.02-.13l.02-.04v-.02s-.14.07-.32.21c-.03.04-.06.07-.09.09.01-.03.03-.06.04-.09.06-.11.09-.2.09-.26s-.01-.09-.04-.09c-.04,0-.09.03-.13.08-.04.05-.06.11-.06.18v.02c0,.09-.09.19-.26.31-.17.12-.29.18-.37.18-.01,0-.02,0-.02-.02l.02-.04c.06-.1.09-.21.09-.32v-.17s0-.06.02-.06.04.02.09.06c.11.1.2.15.26.15.03,0,.04-.01.04-.04v-.04s-.04-.05-.04-.06c0-.07.04-.16.13-.26.07-.06.15-.19.24-.41.07-.17.14-.26.19-.26h.06c.06,0,.12-.04.19-.11s.11-.13.11-.17c0-.03-.03-.04-.09-.04s-.09-.01-.09-.04.02-.07.06-.13c.06-.06.09-.12.09-.19,0-.03-.01-.06-.04-.09-.01-.01-.02-.03-.02-.04h.02l.02.02s.06.02.09.02c.1,0,.18-.04.24-.13.06-.09.09-.17.09-.26,0-.13-.05-.19-.15-.19h-.11s-.03.02-.04.02-.02,0-.02-.02c.09-.14.17-.21.26-.21.03,0,.06.04.11.11.04.07.08.13.11.17.06-.19.09-.31.09-.39,0-.09-.03-.15-.09-.19-.03-.01-.04-.03-.04-.04,0-.04.08-.12.24-.24.19-.13.28-.22.28-.28,0-.01-.01-.04-.04-.09-.03-.04-.04-.08-.04-.11,0-.06.04-.12.11-.19s.12-.11.15-.11c.01,0,.02,0,.02.02s0,.02.02.02c.03,0,.09-.04.19-.11.16-.1.27-.15.34-.15.04,0,.13.04.26.13l.06.04s-.04-.09-.13-.18c-.09-.09-.17-.14-.26-.14-.01,0-.04,0-.09.02-.03.01-.05.02-.06.02-.03,0-.04-.02-.04-.06l.02-.11c.06-.1.13-.15.21-.15h.06s.03,0,.04.02c.06,0,.12-.05.19-.15.04-.09.09-.13.13-.13.01,0,.04,0,.06.02.01.01.03.02.04.02.04,0,.06-.02.06-.06,0-.07-.04-.11-.11-.13-.07-.01-.11-.06-.11-.13,0-.06.02-.12.06-.19.04-.07.1-.11.17-.13.13-.04.21-.13.24-.26,0-.01,0-.02.02-.02.03,0,.07.04.13.11l.04.06s.02-.01.02-.04,0-.09-.02-.17c-.01-.09-.02-.14-.02-.15,0-.13.1-.29.3-.49.19-.2.28-.36.28-.47,0-.13.14-.36.43-.69.29-.33.47-.49.56-.49.03,0,.06,0,.09.02.07.04.13.06.17.06.14,0,.21-.07.21-.21,0-.26-.16-.61-.49-1.06-.33-.45-.71-.85-1.15-1.19-.44-.34-.83-.52-1.19-.52s-.67.06-.95.19c-.27.13-.62.34-1.05.62-.06.04-.1.07-.13.09-.01-.03-.05-.06-.11-.11-.21-.24-.32-.4-.32-.47,0-.04.02-.08.06-.11.33-.3.62-.5.88-.61s.6-.21,1.03-.31h-.6c-.2,0-.39.05-.58.14-.19.09-.41.23-.67.4-.34.23-.58.34-.71.34-.06,0-.11-.01-.17-.04-.16-.07-.39-.11-.71-.11-.6,0-1.39.14-2.36.42-.97.28-2.03.67-3.18,1.17-.39.16-.79.34-1.22.54-.43.2-.64.34-.64.41v.04s.02.03.02.04,0,.02-.02.02c0-.01,0-.02-.02-.02-.04-.03-.09-.04-.15-.04-.1,0-.23.06-.39.17-.04.03-.07.05-.09.06.01,0,.03,0,.04-.02.19-.07.3-.11.34-.11.03,0,.04,0,.04.02,0,.04-.18.16-.53.34-.35.19-.57.28-.66.28h-.02v-.02s.02-.03.02-.04-.02-.02-.06-.02c-.29,0-1.25.47-2.88,1.42-.56.32-.85.47-.88.47h-.02c0-.14,1.16-.83,3.48-2.07,2.32-1.24,4.42-2.19,6.29-2.87.9-.33,1.35-.52,1.33-.56-.07,0-.33.06-.77.19-2.65.8-5.61,2.16-8.88,4.08-3.27,1.92-6.22,3.82-8.83,5.7-2.61,1.88-4.67,3.43-6.16,4.63-.14.11-.52.39-1.12.84-2.19,1.56-3.91,2.9-5.16,4.02-.03.01-.06.04-.11.09-1.2,1.07-2.02,1.78-2.45,2.13s-.79.56-1.08.66c-.29.09-.74.16-1.34.2h-.06c-.74.06-1.77.17-3.07.34-1.3.17-2.47.34-3.49.52-1.02.17-1.54.29-1.54.34v.02s-.04.04-.13.04c-.06,0-.15,0-.28-.02-.07-.01-.11-.02-.13-.02-.07,0-.11.01-.11.04v.09s-.05.04-.15.04h-.19c-.07-.01-.12-.02-.15-.02-.09,0-.13.02-.13.06l.02.04s.02.05.02.06c0,.03-.02.04-.06.04-.03,0-.09,0-.17-.02-.07-.01-.12-.02-.15-.02-.04,0-.08.02-.11.06-.03.06-.09.09-.17.09-.01,0-.06,0-.13.02-.26.01-.39.05-.39.11v.02c0,.07-.24.18-.73.32-.53.16-1.19.43-1.97.82-.78.39-1.46.77-2.04,1.14-.58.37-.87.63-.87.77,0,.04-.02.06-.06.06-.01,0-.03,0-.04-.02h-.04c-.07,0-.22.08-.44.25-.22.16-.43.4-.61.71-.19.31-.28.66-.28,1.06,0,.37.02.62.06.75.1.27.15,1.21.15,2.81.04.01.1.04.17.06.19.03.28.08.28.15,0,.03-.02.09-.06.17-.07.14-.11.24-.11.3,0,.13.09.19.28.19.2,0,.44-.05.72-.15.28-.1.42-.19.42-.26,0-.06-.11-.09-.34-.09-.07,0-.17,0-.3.02h-.17s.04-.05.11-.11c.09-.03.18-.04.28-.04.04,0,.09,0,.13.02h.06s.04,0,.04-.02,0-.03-.02-.04c-.01-.03-.02-.05-.02-.06,0-.24.58-.6,1.74-1.07s2.46-.94,3.91-1.4c1.45-.46,2.18-.69,2.19-.69s.03,0,.04.02c.01.03.04.04.06.04.07,0,.23-.05.47-.15.43-.17.74-.26.92-.26.1,0,.15.04.15.11,0,.1-.15.29-.45.56-.64.59-1.16,1.09-1.55,1.51-.39.42-.58.66-.58.7h.02s.02,0,.02.02c0,.03-.06.1-.19.21-.06.07-.09.11-.09.13.03,0,.2-.14.5-.42.31-.28.76-.72,1.36-1.32.82-.8,1.4-1.31,1.74-1.51.34-.21.64-.31.88-.31.04,0,.06.02.06.06,0,.07-.33.45-.99,1.14-.63.67-1.38,1.48-2.26,2.41-.77.83-1.26,1.37-1.47,1.61-.21.24-.31.42-.31.52,0,.03,0,.05.02.06v.06s0-.02-.02-.02h-.04c-.09,0-.32.19-.69.56s-.69.74-.97,1.1c-.32.42-.74.92-1.29,1.5-.24.27-.42.48-.53.61-.11.14-.16.25-.16.33.01.01.02.03.02.04,0,.03-.02.04-.06.04-.09,0-.45.42-1.1,1.27-.37.47-.59.73-.64.77-.16.11-.27.3-.32.56-.03.1-.06.15-.09.15l-.02-.02c-.11,0-.62.65-1.5,1.96-.34.5-.54.79-.6.86-.64.82-1.36,2.05-2.16,3.7-.79,1.65-1.19,2.8-1.19,3.46,0,.34.08.66.24.95.16.29.42.6.77.95.14.13.29.27.43.41.23.24.6.55,1.12.92.19.11.53.43,1.03.95.39.4.7.7.93.9.24.2.43.3.57.3.09,0,.18-.04.28-.11.06-.04.1-.06.13-.06.04,0,.1.04.17.11.11.1.21.15.3.15.24,0,.51-.24.79-.73.06-.07.26-.24.6-.52.57-.47.86-.75.86-.84,0-.03-.01-.06-.04-.09-.06-.04-.32-.38-.79-1.01,0-.33.51-1.24,1.54-2.72,1.02-1.48,2.49-3.51,4.39-6.07.57-.69,1.06-1.3,1.46-1.83,1.07-1.4,2.78-3.37,5.11-5.9,2.33-2.53,4.57-4.86,6.69-6.99,2.13-2.13,3.32-3.25,3.58-3.35.19-.07,1.21-.14,3.07-.19,1.83-.07,2.79-.16,2.86-.28h.02c.07,0,.16.03.28.09.11.07.22.11.32.11.04,0,.06-.05.06-.15,0-.07-.05-.13-.14-.17-.09-.04-.2-.06-.33-.06-.17,0-.29.05-.37.15-.07.09-.16.13-.28.13-.09,0-.13,0-.13-.02s.02-.04.06-.06l.06-.06s-.19-.06-.56-.06c-.19,0-.68.01-1.48.04-.83.03-1.35.04-1.55.04-.3.03-.47.11-.49.24v.02s-.04-.03-.06-.09c-.09-.09-.39-.16-.92-.21h-.04s.1-.07.17-.13c.29-.2.53-.34.73-.43.2-.09.49-.14.86-.17h.04c.83-.1,1.28-.15,1.35-.15.14,0,.22.02.24.06.01.03.05.04.11.04s.14-.02.24-.06c.09-.04.14-.06.17-.06.01,0,.03.01.04.04.01.06.05.09.11.09h.09c.09-.03.13-.09.13-.17,0-.01,0-.04-.02-.06l-.02-.02h.02s.14.08.32.24c.06.04.1.08.13.11.01-.03.04-.06.06-.11.09-.17.14-.26.17-.26.01,0,.02.03.02.09,0,.07.01.11.04.11s.09-.04.17-.11c.09-.07.14-.11.15-.11v.02l-.02.04s-.02.07-.02.09c0,.06.12.09.37.09.26,0,.43-.07.52-.21.03-.03.05-.04.06-.04s.06.04.15.11c.13.1.22.15.28.15.03,0,.04-.01.04-.04,0-.01,0-.04-.02-.06-.01-.03-.02-.05-.02-.06,0-.04.05-.06.15-.06s.15.02.15.06c0,.01,0,.04-.02.06-.01.03-.02.05-.02.06,0,.03.02.04.06.04.06,0,.11-.03.17-.09.14-.09.31-.13.49-.13.04,0,.06,0,.06.02l-.06.06c-.06.04-.09.08-.09.11,0,.07.04.11.11.11.04,0,.08-.01.11-.04.06-.06.13-.09.21-.09.03,0,.08,0,.15.02.04.01.08.02.11.02.09,0,.13-.06.13-.19v-.21s.03.03.04.04c.13.14.24.25.33.31.09.06.22.1.38.1.17,0,.37-.08.58-.24.09-.06.14-.09.15-.09.03,0,.04.01.04.04.03.07.11.11.24.11.1,0,.2.04.3.13.09.07.19.11.3.11.23,0,.38-.06.45-.17.03-.03.05-.04.06-.04l.02.06c.01.11.06.17.15.17.04,0,.06-.02.06-.06,0-.03-.01-.06-.04-.11,0-.01,0-.03-.02-.04l.02-.02.04.02c.06.03.11.04.15.04.07,0,.16-.04.28-.13l.06-.04s.02,0,.02.02,0,.05-.02.11c-.03.09-.04.14-.04.17s0,.04.02.04l.02-.02s.04-.02.09-.02.11.02.19.06c.06.06.11.09.15.09s.09-.04.13-.11c.04-.07.09-.11.13-.11.03,0,.07.02.13.06.11.07.22.11.32.11.04,0,.1,0,.17-.02.04-.01.07-.02.09-.02s.02,0,.02.02l-.02.04s-.02.08-.02.11c0,.04.03.06.09.06s.09-.06.09-.17c0-.07-.01-.15-.04-.24-.01-.06-.03-.11-.04-.15.01.01.03.04.04.06.16.2.27.3.34.3.01,0,.04-.01.06-.04.01,0,.02,0,.02.02s-.03.07-.09.17c-.06.13-.09.21-.09.24s.03.06.09.09c.07.03.11.06.11.11,0,.06-.12.09-.37.09-.09,0-.27,0-.54-.02-1.03-.07-2.17-.11-3.42-.11-.64,0-1.05,0-1.21.02-.16.01-.25.04-.25.06s.04.04.13.04h.47c1.23.01,1.85.06,1.85.13,0,.01,0,.02-.02.02-.03.01-.04.03-.04.04,0,.04.35.06,1.05.06h.32c1.17.01,1.76.1,1.76.26,0,.01-.04.14-.13.39-.2.64-.3,1.02-.3,1.14v.04s.02.03.02.04c0,.04-.02.06-.06.06-.06,0-.24.45-.56,1.35-.32.9-.47,1.45-.47,1.63v.04s.14-.25.34-.74c.2-.49.35-.9.45-1.21.07-.2.17-.47.3-.79.27-.73.46-1.22.57-1.47.11-.25.21-.41.3-.48.09-.07.23-.11.4-.11.16,0,.24.07.24.21,0,.19-.16.72-.47,1.59-1.02,2.68-1.79,5.13-2.33,7.36-.54,2.23-.81,4.43-.81,6.61,0,2.33.23,4.12.7,5.35.47,1.23.86,2.05,1.19,2.45,0,.32.36.74,1.07,1.29.72.54,1.53,1.03,2.43,1.47.9.44,1.58.66,2.04.66.13,0,.33-.06.61-.17.28-.11.42-.18.42-.19,0-.06-.21-.14-.64-.26-.49-.14-1.05-.37-1.7-.69-.26-.11-.4-.17-.43-.17h-.02s-.15-.06-.32-.19-.26-.21-.26-.24h.02l.04.02c.06.03.09.04.11.04s.02,0,.02-.02c0-.04-.05-.11-.14-.19-.09-.09-.16-.13-.2-.13v.02l.02.06s.04.08.04.11-.01.04-.04.04c-.09,0-.23-.12-.43-.35-.2-.24-.3-.4-.3-.5v-.04l.02-.02c0-.11-.12-.21-.37-.3-.03,0-.06,0-.11-.02h-.09s-.02,0-.02-.02c0-.03.04-.08.13-.15l.09-.06s-.02-.03-.06-.04c-.09,0-.13-.06-.13-.17,0-.01,0-.04.02-.09v-.15c0-.11-.05-.17-.15-.17h-.04c-.1,0-.17-.04-.21-.13v-.04c0-.09.03-.13.09-.13.07,0,.11.03.11.09,0,.01,0,.04-.02.06l-.02.02s0,.02.02.02c.17-.03.26-.06.26-.11,0-.01-.02-.03-.06-.04-.06-.03-.09-.06-.09-.11,0-.03,0-.06.02-.11.01-.03.02-.05.02-.06h-.02s-.05.04-.06.04c-.09,0-.21-.1-.39-.3-.03-.03-.05-.05-.06-.06.04.01.09.04.13.06.04.03.09.04.15.04.09,0,.13-.08.13-.24,0-.1-.04-.21-.11-.32-.06-.1-.09-.19-.09-.28,0-.07.02-.16.06-.28.01-.06.02-.09.02-.11,0-.03-.01-.04-.04-.04-.01,0-.04,0-.09.02-.03.03-.06.04-.09.04v-.02s.01-.04.04-.09c.09-.14.13-.28.13-.41,0-.1-.03-.15-.09-.15h-.06s-.03.02-.04.02c-.06,0-.09-.04-.09-.13,0-.06.03-.14.09-.24.04-.1.06-.19.06-.26,0-.04,0-.09-.02-.15-.01-.04-.02-.08-.02-.11,0-.1.05-.21.15-.34.07-.1.11-.18.11-.24,0-.1-.06-.15-.17-.15-.04,0-.11.01-.19.04-.07.01-.11.02-.13.02-.03,0-.04,0-.04-.02,0-.04.05-.11.14-.2s.16-.14.2-.14c.03,0,.04.01.04.04.01.04.04.06.06.06s.06,0,.11-.02c.09-.01.13-.07.13-.17-.03-.13-.08-.19-.15-.19h-.04s0,.02-.02.02c-.03,0-.04-.05-.04-.15,0-.19.06-.37.19-.56.09-.14.13-.26.13-.37,0-.07-.01-.11-.04-.11l-.04.02h-.02c-.06,0-.09-.06-.09-.17.01-.14.06-.21.15-.21s.13.02.13.06l-.02.02v.02s.04.06.13.06c.07,0,.11-.04.11-.13-.01-.19-.07-.28-.17-.28-.01,0-.03,0-.04.02l-.02.02-.02-.02.06-.06c.23-.21.34-.39.34-.52,0-.07-.03-.11-.09-.11-.01,0-.04.01-.09.04-.04.01-.07.02-.09.02-.04,0-.06-.04-.06-.11,0-.13.07-.28.21-.45l.04-.02h-.02l-.06.02c-.06.04-.09.06-.11.06s-.02,0-.02-.02.01-.05.04-.11c.07-.16.11-.29.11-.39,0-.06,0-.1-.02-.13l-.04-.09h.02l.06.04c.1.07.17.11.21.11s.1-.05.16-.14c.06-.09.1-.17.1-.23,0-.01-.02-.04-.06-.06-.09-.03-.14-.09-.15-.17-.01-.03-.02-.05-.02-.06,0-.04.04-.06.11-.06h.11s.07.02.09.02c.04,0,.06-.02.06-.06,0-.01,0-.05-.02-.11-.01-.06-.02-.09-.02-.11,0-.03,0-.04.02-.04s.04.01.09.04c.06.03.09.04.11.04,0-.04-.03-.09-.09-.14-.06-.05-.13-.08-.21-.08s-.13.02-.13.06l.02.09.04.06v.02c-.24-.17-.37-.29-.37-.34h.02s.07.01.13.04c.03.01.05.02.06.02s.02,0,.02-.02,0-.04-.02-.09c-.01-.06-.02-.1-.02-.13,0-.09.03-.15.09-.19l.06-.02s.02,0,.02.02l-.02.04s-.02.06-.02.09c0,.06.03.1.09.13h.04c.09,0,.17-.05.25-.14.08-.09.12-.18.12-.25,0-.03-.03-.04-.09-.04-.07-.01-.11-.06-.11-.13,0-.1.1-.21.3-.32.14-.09.21-.16.21-.24,0-.03-.02-.04-.06-.04l-.17.02c-.06,0-.09-.02-.09-.06,0-.03.06-.09.17-.17.11-.09.22-.26.32-.54.06-.11.1-.2.14-.26.04-.06.09-.09.16-.09.03,0,.05,0,.06.02l.04.02s.04-.04.04-.11-.04-.11-.11-.11c-.03,0-.06,0-.09.02-.04.01-.07.02-.09.02-.04,0-.07-.03-.09-.09-.01-.04-.04-.06-.06-.06-.1.01-.15.06-.15.15,0,.04.01.08.04.11l.02.04s0,.02-.02.02-.05-.03-.11-.09c-.06-.06-.09-.11-.09-.15.03-.14.15-.21.37-.21.03,0,.07,0,.13.02.04.01.07.02.09.02.07,0,.11-.04.11-.13-.01-.16-.08-.24-.19-.24h-.09c-.07,0-.13-.03-.18-.1-.05-.06-.08-.12-.08-.16,0-.03,0-.04.02-.04s.05.01.11.04c.14.09.28.13.41.13.09,0,.15-.02.2-.06.05-.04.08-.08.08-.11v-.02s-.04.01-.09.04l-.06.02s-.02,0-.02-.02.04-.08.13-.19c.09-.11.13-.18.13-.19s0-.02-.02-.02l-.09.04v-.02c0-.06.1-.22.3-.49.21-.29.32-.46.32-.52,0-.04-.04-.06-.13-.06-.1,0-.15.04-.15.11l.02.06.04.09c-.13-.13-.19-.22-.19-.28,0-.1.06-.15.17-.15.03,0,.07,0,.13.02.06.01.1.02.13.02.1,0,.15-.07.15-.21,0-.16-.04-.24-.13-.24h-.06l.04-.02c.24-.11.37-.27.37-.47,0-.17-.07-.34-.21-.52-.03-.04-.04-.07-.04-.09,0-.03.04-.04.11-.04.09,0,.13.03.13.09v.02l-.02.02c0,.06.05.09.15.09s.15-.03.15-.09c0-.01,0-.03-.02-.04-.01-.03-.02-.05-.02-.06,0-.04.04-.07.11-.09.03,0,.04,0,.04-.02s-.05-.04-.15-.09c-.09-.04-.13-.07-.13-.09s.01-.02.04-.02c.17-.03.26-.13.26-.3-.01-.39.03-.58.13-.58.03,0,.06,0,.11.02.04.01.07.02.09.02.03,0,.04,0,.04-.02s0-.03-.02-.04c-.01-.03-.02-.05-.02-.06,0-.03.04-.05.11-.06.06-.01.09-.03.09-.04s0-.03-.02-.04c-.01-.01-.02-.03-.02-.04,0-.06.03-.13.09-.21.04-.04.06-.09.06-.13-.04-.17-.14-.26-.3-.26-.03,0-.06,0-.11.02-.03.01-.05.02-.06.02-.03,0-.04-.02-.04-.06s.01-.09.03-.13.05-.06.1-.06c.03,0,.08.02.15.06.09.03.15.04.19.04.07,0,.14-.03.2-.1s.1-.12.1-.16c0-.03-.04-.04-.13-.04-.04,0-.06,0-.06-.02l.02-.02c.13-.09.19-.19.19-.3,0-.01,0-.04-.02-.09-.01-.03-.02-.05-.02-.06,0-.09.07-.14.21-.15.11-.01.24-.1.37-.25s.19-.26.19-.33v-.02l-.04.02s-.06.04-.11.04-.06-.02-.06-.06c0-.06.04-.1.13-.13.09-.01.15-.05.19-.1.04-.05.06-.14.06-.27,0-.17.04-.33.13-.47.04-.09.06-.16.06-.21,0-.04-.01-.11-.04-.21-.03-.1-.04-.17-.04-.21.03-.24.14-.37.32-.37.03,0,.07,0,.13.02.06.01.09.02.11.02.07,0,.11-.01.11-.04s-.09-.09-.28-.17c-.14-.06-.21-.1-.21-.13s.09-.04.26-.04c.86,0,2.13.21,3.81.64,1.68.43,3.25,1.01,4.71,1.73.87.44,1.48.87,1.83,1.31-.39.23-.61.36-.66.36-.04,0-.1.06-.17.19-.07.11-.12.17-.15.17h-.04c-.16,0-.56.33-1.21.98-.65.65-1.25,1.4-1.78,2.23s-.81,1.59-.81,2.27.17,1.29.5,1.84c.34.55.76.87,1.26.96.13.03.33.09.6.19.27.09.43.13.47.13h.04s.16.02.34.06c.7.17,1.43.28,2.19.32.09,0,.13.01.13.04,0,.1-.59.37-1.76.79-4.66,1.78-6.98,3.72-6.98,5.82,0,.49.1,1.04.3,1.67.2.62.45,1.16.74,1.6.29.44.58.67.85.67.01,0,.04-.01.06-.04h.06s.03,0,.04.02c.04.07.13.11.26.11h.21c.21,0,.33.03.34.09.06.07.14.11.26.11.09,0,.16-.04.24-.11.07-.07.14-.11.21-.11h.04l.04.02c.06,0,.09-.05.09-.15,0-.14-.09-.21-.26-.21-.16,0-.24.04-.24.11l.04.09c0,.09-.07.13-.21.13s-.21-.05-.21-.15c0-.01,0-.05.02-.11.01-.06.02-.09.02-.11,0-.1-.03-.15-.09-.15-.07,0-.11.04-.11.11v.04c-.04.11-.12.17-.24.17-.09,0-.13-.04-.13-.13v-.11c0-.07-.04-.13-.12-.18-.08-.05-.17-.08-.27-.08s-.21.04-.32.13c-.03.01-.05.02-.06.02s-.02,0-.02-.02,0-.04.02-.09c.03-.09.04-.15.04-.19,0-.1-.07-.19-.21-.26-.07-.04-.11-.08-.11-.11l.02-.02h.02s.13.03.3.09c.49.17.85.26,1.1.26h.17c.2,0,.41.09.62.26.1.07.16.11.19.11.04,0,.06,0,.06-.02,0-.03-.04-.08-.11-.15-.07-.09-.11-.14-.11-.17,0-.07.13-.11.39-.11.11,0,.19.02.24.06.04.06.12.09.24.11.14,0,.21-.03.21-.09l-.02-.04s-.02-.05-.02-.06.01-.02.04-.02c.06,0,.16.06.32.19l.09.06v-.02l-.02-.04c-.03-.06-.04-.1-.04-.13,0-.04.02-.06.06-.06.07,0,.11.03.13.09.03.06.08.09.15.09.21,0,.41-.06.58-.19.04-.04.08-.06.11-.06.04,0,.09.02.13.06.04.09.11.13.19.13.07,0,.11-.03.11-.09l-.04-.11c0-.09.07-.14.21-.15.13,0,.19.04.19.11,0,.03-.01.07-.04.13l-.02.06s0,.02.02.02.04-.01.09-.04c.09-.07.16-.11.21-.11.04,0,.07,0,.09.02.01.01.03.02.04.02,0-.01-.01-.04-.04-.09-.03-.06-.04-.09-.04-.11,0-.03.03-.04.09-.04.03,0,.11.01.24.04.11.03.18.04.19.04.03,0,.04,0,.04-.02l-.04-.04c-.07-.04-.14-.09-.21-.15l.17-.02h.41c.06,0,.09-.05.11-.15,0-.04,0-.06.02-.06.03,0,.07.02.13.06.03.03.09.04.17.04.16,0,.35-.04.59-.12.24-.08.4-.16.48-.25.03-.04.15-.08.37-.11.17-.01.36-.1.56-.26.11-.09.2-.13.26-.13.01,0,.03,0,.04.02.01.01.04.02.06.02.09,0,.24-.08.47-.24.33-.23.59-.34.77-.34.1,0,.15.04.15.11v.06c0,.06.04.09.11.09.06,0,.09-.07.09-.21v-.11s-.02-.07-.02-.09c0-.1.06-.19.17-.27.11-.08.21-.12.28-.12.01,0,.02,0,.02.02v.04s-.04.08-.04.11.02.04.06.04c.14,0,.39-.15.75-.45.63-.56,1.17-1.37,1.63-2.44.46-1.07.69-2.05.69-2.95,0-.49-.02-.73-.06-.73-.01,0-.03.01-.04.04l-.06.3c-.43-.63-.7-.96-.82-.99-.01,0-.02,0-.02-.02,0-.09.04-.13.13-.13.11,0,.28.09.49.28.11.1.19.15.24.15.03,0,.04-.01.04-.04,0-.01-.03-.04-.09-.09-.06-.09-.09-.15-.09-.19,0-.06.24-.09.73-.09.79,0,1.65.07,2.6.21.23.04.37.06.43.06.03,0,.05,0,.06-.02h.02l.09.02c.2.09.39.14.58.15.5.06.88.22,1.13.49.25.27.54.73.87,1.38,0-.01,0-.03.02-.04.1-.19.15-.32.15-.41,0-.21-.1-.47-.29-.77s-.41-.53-.66-.69ZM29.84,46.12c-.54.01-.88.03-1.02.04-.14.01-.26.04-.38.09-.27.11-.7.23-1.29.34-2.12.46-3.82.91-5.09,1.35-1.27.44-2.37.87-3.29,1.29-.34.16-.54.24-.6.24-.03,0-.04,0-.04-.02,0-.03.01-.1.04-.21.04-.23.13-.39.27-.48.14-.09.3-.17.5-.23.17-.04.26-.09.26-.15s-.04-.09-.11-.09c-.09,0-.21.05-.39.15-.16.09-.27.13-.32.13-.04,0-.08-.02-.12-.08-.04-.05-.05-.09-.05-.12l.04.02s.04.02.06.02c.07,0,.13-.04.17-.13.09-.11.56-.34,1.42-.67.86-.33,1.35-.49,1.48-.49,1.17-.43,1.78-.64,1.8-.64.03.01.08.02.15.02.44,0,.82-.13,1.14-.39.06-.06.09-.09.11-.09.03,0,.06.01.11.04.07.06.14.09.21.09.01,0,.12-.03.32-.09,1.03-.27,1.96-.47,2.79-.58.26-.04.4-.16.43-.34,0-.03,0-.04.02-.04l.04.06c.07.11.17.17.3.17s.19-.04.19-.11c0-.01-.01-.04-.04-.09l-.02-.04c.11,0,.17.04.17.13s-.08.2-.23.33c-.15.14-.26.2-.33.2-.01,0-.03,0-.04-.02h-.04s-.04.03-.04.09c0,.04.05.06.15.06.23,0,.42-.06.56-.19.06-.04.1-.06.13-.06.01,0,.04,0,.09.02.04.01.08.02.11.02.1,0,.24-.06.43-.17.04-.03.08-.05.11-.06-.06.01-.12.04-.19.06-.06.01-.1.02-.13.02h-.06s-.04,0-.04-.02c0-.03.12-.11.37-.24.24-.13.4-.19.47-.19.06,0,.14-.07.24-.21l.02-.02s.02.02.02.06c.01.09.04.13.06.13.01,0,.06-.03.13-.09l.06-.04s-.37.43-1.12,1.2ZM38.33,38.43c-.63.53-1.07.86-1.33,1-.26.14-.49.2-.69.2-.09,0-.13-.02-.13-.06,0-.07.53-.55,1.58-1.45,1.05-.89,2.13-1.79,3.24-2.69,1.11-.89,1.69-1.34,1.75-1.34.04,0,.4-.25,1.08-.75.68-.5,1.44-1.07,2.28-1.7.84-.63,1.79-1.35,2.87-2.17l1.25-.95c.1,0,.47-.26,1.12-.77.29-.24.44-.37.47-.37.07,0,.57-.3,1.48-.89.92-.59,1.54-1.02,1.87-1.28.09-.07.36-.25.82-.54.8-.47,1.2-.76,1.2-.86l-.02-.02c0-.06.14-.19.41-.39-.03.04-.07.09-.13.15-.1.13-.15.21-.15.24s.01.04.04.04c.1,0,.25-.18.45-.54l.06-.09s.02,0,.02.02l-.04.06-.02.06c0,.06.04.09.13.09.11,0,.2-.04.26-.11.06-.07.11-.16.15-.28.03-.1.06-.16.09-.19l.04-.02s.02,0,.02.02,0,.04-.02.09c-.03.04-.04.07-.04.09,0,.03.01.04.04.04.06,0,.3-.13.73-.39.27-.17.44-.27.52-.3.34-.23.82-.5,1.42-.82.6-.31.96-.47,1.07-.47,0,.07-.46.37-1.38.9-3.32,1.92-7.17,4.49-11.54,7.71-4.37,3.22-8.03,6.12-10.98,8.7ZM58.8,40.47l-.43.02c-.16,0-.97-.09-2.45-.26-3.09-.36-5.2-.57-6.32-.62-.3-.01-.51-.03-.62-.04-.11-.01-.17-.06-.17-.13,0-.09.55-.62,1.65-1.59.84-.74,1.27-1.15,1.27-1.2v-.02s.02-.06.06-.06h.06c.09,0,.45-.26,1.08-.77.64-.52,1.32-1.08,2.04-1.7.72-.62,1.08-.93,1.08-.95h-.02c-.16,0-.41.17-.75.52-.01,0-.05-.01-.11-.04-.03-.01-.05-.02-.06-.02v.02s0,.04.02.09c.03.03.04.06.04.09,0,.01-.03.02-.09.02h-.15c-.09,0-.13.03-.13.09v.02c0,.07-.04.15-.13.25-.09.09-.14.14-.17.14s-.04-.04-.04-.11c-.01-.06-.03-.09-.04-.09s-.04.01-.06.04c-.03.04-.32.28-.86.7-.54.42-.82.63-.84.63-.03,0-.04-.01-.04-.04,0-.06.11-.21.32-.47l.06-.06c-.36.3-.54.5-.54.6v.02s-.11.1-.32.21c-.23.11-.34.19-.34.21h.02l.06-.02c.06-.03.09-.04.11-.04h.02c0,.06-.06.14-.19.26-.13.11-.24.17-.32.17h-.02c-.09,0-.3.16-.64.49-.69.69-1.25,1.12-1.68,1.31-.06.03-.09.06-.09.09l.02.06.04.06s0,.02-.02.02-.03,0-.04-.02c-.06-.01-.09-.02-.11-.02-.06,0-.1.02-.13.06-.11.19-.38.42-.81.7-.42.28-.71.42-.85.42-.03,0-.04-.01-.04-.04,0-.1.78-.8,2.35-2.09,1.57-1.3,4.31-3.52,8.24-6.67.03-.03.22-.19.58-.47,1.12-.87,1.68-1.33,1.68-1.38,0-.01,0-.02-.02-.02s-.05,0-.11.02c-.07.03-.11.04-.13.04s-.02,0-.02-.02.05-.07.15-.17c.19-.16.28-.27.28-.34,0-.03-.03-.04-.09-.04-.01,0-.03.03-.04.09,0,.06-.01.09-.04.09-.01,0-.04,0-.06-.02h-.02s-.14.07-.3.21c-.39.36-.69.54-.92.54-.04,0-.07,0-.09-.02l-.02-.02-.02.02s.02.06.06.13c.06.11.09.19.09.24s-.04.06-.11.06c-.09,0-.13-.03-.13-.09l.02-.02v-.04s-.14.06-.3.18c-.16.12-.24.21-.24.27,0,.07-.09.13-.26.17-.23.07-.34.16-.34.28,0,.03.02.07.06.13.03.06.04.09.04.11s-.01.02-.04.02h-.09s-.09-.02-.13-.02c-.14,0-.31.05-.49.14-.19.09-.28.18-.28.27,0,.01,0,.03.02.04.01.03.02.05.02.06,0,.04-.02.08-.05.11-.04.03-.08.04-.12.04-.01,0-.02,0-.02-.02v-.11c0-.1-.02-.15-.06-.15-.19.1-.28.19-.28.28l.02.02v.04s-.05.04-.15.04c-.07,0-.11-.02-.11-.06,0-.06.06-.13.17-.21.21-.19.32-.38.32-.58,0-.19-.08-.35-.24-.49-.1-.11-.15-.21-.15-.3,0-.1.04-.15.13-.15.1,0,.15.05.15.15,0,.01,0,.03-.02.04v.04c0,.07.06.17.18.29.12.12.2.18.25.18v-.02s0-.04-.02-.09c-.01-.07-.02-.11-.02-.13,0-.04.02-.06.06-.06s.11.01.19.04c.07.01.11.02.13.02l.04-.02s-.03-.06-.09-.13c-.1-.11-.15-.2-.15-.26s.03-.09.09-.09c.03,0,.06,0,.11.02.03,0,.05,0,.06.02.13,0,.29-.1.47-.31.19-.21.28-.35.28-.44,0-.01-.01-.02-.04-.02-.01,0-.05,0-.11.02l-.09.04s.02-.05.06-.11c.07-.11.11-.19.11-.24l-.02-.02s-.02,0-.02-.02c0-.06.06-.14.18-.24.12-.1.25-.15.4-.15.13,0,.19.04.19.11-.07.16-.14.24-.21.24-.04,0-.1-.03-.17-.09-.06-.04-.09-.06-.11-.06-.03,0-.04.02-.04.06,0,.06.03.11.1.15s.13.06.2.06c.04,0,.09-.02.13-.06s.09-.06.15-.06h.06s.02,0,.02.02c.06,0,.13-.09.21-.28.04-.09.07-.13.09-.13s.02.01.02.04c.01.1.06.15.15.15.06,0,.09-.01.09-.04l-.02-.04v-.04c0-.06.03-.12.09-.18.06-.06.11-.1.15-.1.09.04.13.13.13.26,0,.09-.1.18-.3.28-.07.04-.11.07-.11.09s.05.04.15.06c.07,0,.14-.05.21-.15.07-.1.11-.21.11-.34,0-.11-.04-.24-.12-.37-.08-.13-.14-.19-.18-.19-.03,0-.04.03-.04.09v.11c0,.06-.07.11-.2.17-.14.06-.25.09-.33.09-.04,0-.06-.01-.06-.04,0-.04.02-.09.06-.14.04-.05.09-.08.13-.08h.04c.07,0,.11-.04.11-.13v-.04s-.02-.07-.02-.09c0-.03,0-.04.02-.04l.04.02s.03.02.04.02c.06,0,.16-.06.3-.19l.09-.06v.04s.09-.07.24-.21c.31-.33.52-.49.6-.49.01,0,.02,0,.02.02,0,.03-.02.08-.06.15l-.02.06v.02s.04-.02.06-.06c.1-.09.16-.13.19-.13.06,0,.15.11.28.34.03.07.06.13.09.17-.03-.1-.05-.2-.06-.3-.01-.06-.02-.11-.02-.15,0-.06.03-.09.09-.09.01,0,.05,0,.11.02h.11c.07,0,.11,0,.11-.02-.04-.09-.09-.13-.15-.13-.01,0-.04,0-.06.02-.03.01-.05.02-.06.02-.03,0-.04-.03-.04-.09s.04-.09.11-.09c.01,0,.05,0,.11.02.07.03.14.04.19.04.1,0,.18-.04.25-.13s.1-.17.1-.26c0-.04-.01-.06-.04-.06-.01,0-.04.01-.06.04-.03.01-.05.02-.06.02-.06,0-.09-.04-.09-.11,0-.06.05-.09.15-.09.04,0,.09,0,.15.02h.09s.06,0,.06-.02,0-.03-.02-.04v-.04c0-.1.1-.24.3-.42.2-.18.33-.27.39-.27.01,0,.02,0,.02.02l-.02.04c-.03.06-.04.09-.04.11,0,.06.02.1.05.12.04.02.07.03.1.03.01,0,.02,0,.02-.02v-.04c0-.07.06-.19.17-.37.11-.17.2-.26.26-.28h.24s.09-.08.15-.24c.07-.17.13-.26.17-.26.01,0,.02,0,.02.02s-.01.04-.04.09c-.01.04-.02.07-.02.09,0,.03,0,.04.02.04.06,0,.27-.09.64-.28.33-.17.52-.33.58-.47.01-.04.04-.06.09-.06.03,0,.07,0,.13.02.04.01.07.02.09.02.03,0,.04-.01.04-.04l-.02-.06s-.02-.08-.02-.11c0-.07.06-.11.17-.11h.04c.09,0,.13-.04.13-.11v-.04c0-.06.03-.09.09-.09.01,0,.04,0,.09.02.03.01.06.02.09.02.04,0,.07-.04.09-.11.03-.09.09-.13.19-.13s.16-.05.19-.15c.01-.04.04-.06.06-.06l.02.02s.05.02.06.02c.07,0,.16-.06.26-.17.1-.11.15-.21.15-.28,0-.03,0-.05-.02-.06-.01-.01-.02-.03-.02-.04h.09c.06.03.11.04.15.04.1,0,.21-.08.34-.24.13-.14.25-.21.37-.21.04,0,.12,0,.24.02.09.03.14.04.17.04.06,0,.09-.02.09-.06l-.02-.04v-.06c0-.07.05-.14.14-.21.09-.07.18-.11.27-.11.04,0,.09.01.13.04.01.01.03.02.04.02v-.02l-.04-.11c0-.07.14-.16.41-.28.23-.09.34-.16.34-.21v-.04l-.02-.02s.02-.08.06-.12c.04-.04.08-.05.11-.05h.02s-.01.04-.04.09c-.03.06-.04.09-.04.11s.01.02.04.02c.04,0,.19-.08.43-.24.2-.14.32-.21.37-.21.01,0,.02,0,.02.02,0,.06-.27.48-.79,1.27-1.66,2.39-3.38,5.1-5.16,8.11-1.78,3.02-3.57,6.63-5.39,10.84ZM65.08,29.88c-.11.11-.17.19-.17.21,0,.04.03.09.09.15.06.09.09.16.09.21l-.02.04s-.03.02-.04.02c-.03,0-.04-.04-.04-.11-.01-.09-.04-.13-.06-.13-.07,0-.23.24-.47.73-.13.26-.21.39-.24.41-.86,1.68-1.29,2.56-1.29,2.66v.02s-.05.1-.15.26c-.44.73-.69,1.22-.75,1.48-.42.85-.62,1.35-.62,1.53,0,.03,0,.06.02.09v.04l-.02-.02s-.04-.04-.06-.04c-.04,0-.13.11-.27.34-.14.23-.2.4-.2.52,0,.03.01.04.04.04.01,0,.04,0,.06-.02l.04-.02s-.01.03-.04.04c-.17.16-.26.27-.26.34,0,.01,0,.03.02.04.01.01.02.03.02.04,0,.06-.06.15-.17.28-.07.1-.11.16-.11.19,0,.01,0,.02.02.02s.02,0,.02.02c0,.03-.02.06-.06.11-.17.21-.32.54-.45.97-.07.23-.2.34-.39.34-.06,0-.14-.01-.24-.04-.13-.01-.24-.04-.34-.06,2.32-5,3.98-8.32,4.98-9.97.06-.07.09-.11.09-.13,0-.06.35-.66,1.04-1.79.69-1.14,1.49-2.4,2.4-3.78.9-1.38,1.72-2.58,2.45-3.59s1.2-1.54,1.4-1.58l.47-.15h.02c0,.07-.11.23-.34.47-.44.46-1.22,1.47-2.34,3.03-1.12,1.56-1.68,2.41-1.68,2.56,0,.06-.27.51-.79,1.35-.99,1.58-1.48,2.46-1.48,2.64,0,.03-.05.1-.15.21ZM79.73,62.8c-.85.61-1.58,1.02-2.21,1.24.04-.03.09-.06.15-.11.07-.06.14-.12.21-.19.06-.04.11-.09.15-.13-.03.01-.07.04-.13.06-.29.16-.43.27-.43.32v.09c0,.29-.78.7-2.34,1.24-1.56.54-2.48.81-2.75.81h-.09s-.05-.02-.06-.02c-.07,0-.12.02-.15.06-.04.07-.4.13-1.08.16-.68.04-1.26.05-1.73.05-.36,0-.85-.11-1.48-.34-.09-.07-.13-.15-.13-.24,0-.06.04-.09.11-.09.04,0,.17.02.39.06.26.06.42.09.47.09h.02s-.08-.05-.24-.11c-.33-.11-.49-.21-.49-.28,0-.06.11-.19.32-.39.27-.27.41-.47.41-.6,0-.01,0-.03-.02-.04v-.02s0-.02.02-.02.04,0,.09.02h.02c.11,0,.26-.16.45-.47.1-.19.18-.28.24-.28.01,0,.02.01.02.04,0,.06-.02.15-.06.28-.03.04-.04.07-.04.09.6-.83,1-1.25,1.18-1.25h.04s0,.02.02.02.03-.02.04-.06c.03-.11.09-.17.17-.17.1,0,.27-.11.52-.32.17-.14.29-.21.34-.21h.02s.03.02.04.02c.04,0,.12-.06.24-.17.1-.1.29-.19.56-.28.2-.06.3-.11.3-.17l-.02-.09s.01-.02.04-.02c.01,0,.04,0,.09.02.06.01.09.02.11.02.06,0,.09-.02.09-.06v-.04c0-.07.18-.15.54-.24.29-.07.43-.14.43-.19l-.04-.02s-.04,0-.04-.02c0-.06.14-.15.41-.29.27-.14.44-.2.52-.2v.02l-.11.09c-.09.07-.13.11-.13.13s.02.02.06.02c.11,0,.19-.06.24-.17.03-.09.18-.18.44-.27.26-.09.49-.14.68-.14.1,0,.16.04.19.11.01.03.04.04.09.04.01,0,.03,0,.04-.02.06-.01.41-.06,1.05-.13.67-.07,1.03-.11,1.07-.13h.04c.07,0,.14.06.21.19.03.06.05.09.06.09.03,0,.06-.03.11-.09.03-.07.05-.11.06-.11s.02.02.02.06c.03.1.06.15.09.15l.04-.02s.03-.02.04-.02c.07,0,.16.05.28.15.09.07.14.11.15.11.03,0,.05-.02.06-.06.01-.09.05-.13.11-.13s.09.02.09.06c0,.01,0,.04-.02.06-.01.01-.02.03-.02.04,0,.03.02.04.06.04.17.04.31.25.43.62l.17-.52c.06.3.09.48.09.54,0,.16-.09.37-.28.64-.09.11-.13.18-.13.19s0,.02.02.02c.04,0,.15-.08.32-.24.19-.17.31-.26.37-.26.03,0,.04.03.04.09,0,.24-.42.67-1.27,1.28ZM119.32,48.83l-.06-.06c-1.05-1.38-1.81-2.06-2.3-2.06-.11,0-.17.05-.17.15,0,.06.09.18.28.37.3.27.54.56.73.86.19.3.28.69.28,1.18,0,.6-.07,1.3-.21,2.09-.14.79-.28,1.19-.41,1.19-.01,0-.04-.01-.06-.04l-.02-.02s-.02,0-.02.02c0,.03.01.1.04.21.03.11.04.19.04.21,0,.06-.01.09-.04.09-.01,0-.05-.02-.11-.06l-.06-.02-.02.02.02.04c.04.07.06.14.06.21-.01.27-.09.41-.21.41-.01,0-.03,0-.04-.02-.04-.01-.07-.02-.09-.02,0,.01,0,.04.02.06.04.06.06.11.06.17,0,.13-.04.27-.11.42-.07.15-.14.23-.19.23-.03,0-.06-.02-.11-.06l-.02-.04s-.02,0-.02.02,0,.04.02.09c.01.04.02.09.02.13,0,.39-.54,1.53-1.63,3.44-1.03,1.83-2.15,3.46-3.34,4.87-1.2,1.41-2.25,2.46-3.15,3.15s-1.58,1.03-2.02,1.03c-.1,0-.15-.04-.15-.11,0-.03.02-.08.06-.15.01-.03.02-.05.02-.06,0-.03-.02-.06-.05-.1-.04-.04-.07-.05-.1-.05s-.04.02-.04.06c0,.03.01.11.04.24.03.16.04.26.04.3,0,.07-.02.11-.06.11-.11,0-.22-.16-.32-.47-.1-.31-.15-.79-.15-1.44s.13-1.42.38-2.32c.25-.9.58-1.93.98-3.07.27-.79.41-1.22.41-1.31,0-.16.04-.29.13-.39.03-.01.04-.03.04-.04l-.02-.02s-.05.01-.11.04c-.07.03-.12.04-.15.04-.06,0-.09-.04-.09-.13,0-.13-.16-.38-.49-.76-.33-.38-.58-.57-.75-.57-.23,0-.53.26-.91.78-.38.52-.81,1.19-1.28,1.99-.3.5-.47.75-.49.75,0-.03.07-.2.21-.52.19-.4.28-.63.28-.69s-.04-.09-.13-.09c-.06,0-.09.01-.09.04v.02s.02.03.02.04c0,.07-.09.26-.26.56-.27.46-.41.77-.41.92,0,.19-.47.74-1.41,1.68-.94.93-1.97,1.87-3.08,2.8-1.12.94-1.91,1.53-2.38,1.77-.4.2-.69.3-.88.3-.24,0-.37-.17-.37-.52,0-.26.13-.92.39-1.98.13-.56.2-.89.21-1.01.03-.14.14-.42.34-.82.2-.4.31-.62.34-.64.06-.01.09-.04.09-.09,0-.01,0-.03-.02-.04-.01-.03-.02-.06-.02-.09,0-.09.08-.22.24-.41.11-.13.17-.21.17-.26,0-.01-.01-.02-.04-.02l-.02-.02s.03-.04.09-.06c.04-.04.06-.08.06-.11-.04-.13-.14-.19-.3-.19-.21.04-.32.19-.32.43,0,.04,0,.1.02.17.01.04.02.07.02.09,0,.03-.01.04-.04.04l-.04-.02h-.02c-.06,0-.12.06-.18.18-.06.12-.16.33-.29.63-.09.19-.15.34-.19.45-.21.47-.38.99-.49,1.55-.11.56-.21,1.2-.3,1.93-.09.64-.16.97-.21.97s-.11-.14-.15-.41c-.03-.17-.09-.32-.17-.45-.07-.1-.11-.21-.11-.34l.02-.34c.06.16.1.29.13.41l.02.04s.02-.06.02-.17c0-.5.05-.84.15-1.03.01-.03.02-.05.02-.06s-.01-.03-.04-.04c-.01-.01-.03-.03-.04-.04-.11-.04-.17-.1-.17-.17,0-.06.04-.09.11-.09h.04s.05.02.06.02c.09,0,.14-.12.15-.37.01-.21.16-.61.43-1.18.1-.23.15-.36.15-.39,0-.01,0-.02-.02-.02v-.02s.03-.1.09-.21c.07-.13.11-.21.11-.26s-.05-.1-.15-.17c-.04-.03-.06-.05-.06-.06s.03-.02.09-.02c.24-.03.37-.11.37-.24-.04-.23-.14-.34-.3-.34-.01,0-.04,0-.09.02l-.04.02s-.02,0-.02-.02.02-.04.05-.09c.04-.04.08-.06.12-.06.03,0,.1.03.21.09.1.04.16.06.17.06s.02,0,.02-.02l-.02-.02s-.02-.06-.02-.11c0-.1.04-.28.13-.54.1-.26.15-.44.15-.56,0-.03,0-.06-.02-.09v-.06c0-.07.05-.11.15-.11.03,0,.09,0,.17.02.11.01.19.02.24.02.09,0,.13-.03.13-.09,0-.01,0-.04-.02-.06-.01-.06-.02-.1-.02-.13,0-.14.05-.21.15-.21.01,0,.02,0,.02.02s-.02.06-.06.13l-.02.06c.11,0,.19-.16.21-.49,0-.04.03-.06.09-.06.01,0,.04,0,.09.02l.04.02s.02,0,.02-.02-.02-.06-.06-.13c-.06-.1-.09-.18-.09-.24,0-.07.13-.14.39-.21.04-.01.08-.03.11-.04-.04-.01-.1-.04-.17-.06-.16-.06-.24-.09-.24-.11s.04-.02.11-.02c.14-.01.3-.15.47-.42.17-.26.26-.44.26-.53,0-.03,0-.04-.02-.04-.04,0-.14.06-.28.17-.06.04-.1.08-.13.11l.02-.02c.23-.26.34-.44.34-.56,0-.03-.01-.06-.04-.09l.02-.02s.06.04.13.11c.11.07.17.16.17.26,0,.03-.01.06-.04.09l-.02.02s0,.02.02.02.04-.04.09-.12c.04-.08.06-.18.06-.29,0-.17.16-.34.47-.52.11-.07.18-.12.19-.15l.02-.04s-.06.01-.13.04l-.06.02s-.04,0-.04-.02c0-.07.04-.18.12-.31.08-.14.15-.2.23-.2.01,0,.04,0,.06.02.04.01.07.02.09.02l-.02-.02s-.02-.08-.02-.11c0-.06.04-.11.13-.15.1-.06.15-.12.15-.19,0-.11.06-.24.17-.37.11-.13.24-.19.39-.19.07,0,.13-.04.17-.11l.02-.02s-.03-.02-.09-.02h-.11c-.06.01-.1.02-.13.02-.07,0-.12-.03-.15-.09-.03-.06-.09-.09-.19-.09-.04,0-.11,0-.19.02h-.11c-.09,0-.13-.07-.13-.21,0-.1.01-.15.04-.15.01,0,.03.02.04.06.03.06.06.09.09.09.01,0,.06-.04.15-.11.09-.06.14-.09.15-.09l-.02.04s-.02.07-.02.09c0,.06.04.1.12.14.08.04.16.05.25.05.11,0,.24-.05.39-.15.03-.03.05-.04.06-.04s.02,0,.02.02c0,.03.01.04.04.04s.06-.01.1-.04c.04-.03.05-.06.05-.11,0-.06-.04-.09-.11-.09-.09,0-.26.08-.52.24-.07.04-.12.07-.15.09.01-.03.04-.06.09-.11.2-.23.3-.38.3-.45l-.02-.04-.02-.02s.05-.06.15-.06c.07,0,.12-.02.15-.06.04-.06.12-.09.24-.09.03,0,.07,0,.13.02h.15c.11,0,.17-.04.17-.11s-.04-.11-.11-.11c-.03,0-.08.01-.15.04-.04.01-.07.02-.09.02s-.02,0-.02-.02c.03-.03.04-.06.04-.09,0-.07-.04-.15-.13-.24s-.17-.13-.26-.13-.13.04-.13.11c0,.03,0,.06.02.09.01.03.02.06.02.09,0,.1-.03.15-.09.15-.04,0-.06-.04-.06-.13,0-.31.04-.47.11-.47.17,0,.35.1.54.3.09.09.14.13.17.13.04,0,.06-.03.06-.09,0-.01,0-.04-.02-.06v-.06c.01-.19.1-.36.26-.53.16-.16.29-.25.39-.25.01.01.02.03.02.04,0,.04-.08.14-.24.3-.2.21-.3.35-.3.41,0,.04.01.06.04.06.07.03.11.08.11.15l-.04.13v.02s.09-.15.19-.37c.24-.47.42-.71.52-.71.09,0,.24-.15.45-.45s.32-.52.32-.64c0-.04-.01-.06-.04-.06s-.12.06-.28.19c-.03.04-.06.07-.09.09.19-.33.28-.54.28-.62,0-.03-.02-.04-.06-.04-.1,0-.16,0-.18-.02-.02-.01-.05-.06-.08-.13l-.02-.02s.04-.06.13-.06c.03,0,.06,0,.11.02h.09c.1,0,.15-.03.15-.09,0-.03-.01-.06-.04-.09-.1-.07-.15-.22-.15-.45-.01-.42-.16-.86-.44-1.34-.28-.48-.56-.72-.83-.72-.5,0-1.21.41-2.13,1.22-.92.82-1.89,1.87-2.92,3.15-1.03,1.28-1.96,2.61-2.78,4-.82,1.38-1.39,2.6-1.71,3.64-.09.26-.18.56-.28.9-.1.36-.16.54-.17.54s-.02-.04-.02-.11c0-.49.18-1.24.54-2.27.36-1.02.75-1.87,1.18-2.55.19-.31.28-.54.28-.67,0-.09.05-.15.15-.19.04-.01.06-.04.06-.06,0-.01,0-.04-.02-.06-.01-.03-.02-.05-.02-.06,0-.04.01-.06.04-.06.06,0,.13-.09.23-.27.09-.18.14-.3.14-.35-.04,0-.24.29-.6.86-.36.57-.73,1.22-1.12,1.93-.07.13-.11.29-.13.49-.01.13-.04.19-.09.19-.01-.01-.04-.03-.06-.04-.03-.01-.05-.02-.06-.02,0,.01,0,.04.02.09.01.04.02.07.02.09,0,.04-.02.08-.06.11-.04.06-.06.12-.06.19,0,.03,0,.06.02.11.01.04.02.07.02.09,0,.04,0,.06-.02.06s-.02,0-.02-.02h-.04c-.07,0-.11.08-.11.24,0,.14-.11.34-.32.6-.07.1-.11.16-.11.17l.02.02s.06-.01.11-.04c.04-.03.07-.04.09-.04,0,.01-.04.07-.11.17-.13.16-.19.27-.19.34,0,.03.01.06.04.11.04.1.06.2.06.3,0,.14-.02.24-.06.3-.04.06-.1.11-.17.15-.07.04-.12.09-.15.13v.04s0,.04.02.04.03,0,.04-.02h.02s.08.19.12.57c.04.38.08.91.12,1.6.06.7.09,1.11.11,1.22.13.59.29,1.07.47,1.44.04.07.06.11.06.13l-.02.02-.02.02c0,.07.14.29.41.66.27.37.51.64.71.83.21.19.68.42,1.4.71.42.17.66.29.73.37.09.11.24.18.45.19.09.01.13.04.13.06l-.02.04c0,.09.05.14.15.17.24.06.52.09.84.09,1.02,0,1.97-.29,2.85-.88.88-.59,2.05-1.63,3.51-3.14.4.99.78,1.7,1.13,2.14.35.44.89.75,1.62.93.29.06.69.19,1.22.41.46.17.85.3,1.17.39s.68.13,1.06.13c.33,0,.49-.05.49-.15,0-.01,0-.04-.02-.06l-.02-.02s.06-.06.17-.06c.13,0,.39-.11.78-.33.39-.22.71-.42.96-.59.47-.29,1.01-.72,1.61-1.29.21-.21.4-.34.56-.39.03,0,.04,0,.04-.02l-.02-.02s.16-.25.49-.62c.47-.54.71-.86.71-.95,0-.06,0-.09.02-.11.01-.01.05-.02.11-.02.09,0,.18-.09.28-.28.07-.14.14-.21.19-.21.03,0,.05-.03.06-.09.06-.19.2-.42.43-.69.27-.39.55-.82.84-1.29,0-.01,0-.04.02-.09.03-.11.04-.21.04-.3,0-.01.04-.04.11-.06.17-.07.26-.18.26-.32,0-.16.09-.36.28-.6.14-.2.21-.34.21-.43,0-.1.05-.16.15-.19.04-.01.06-.03.06-.04s0-.03-.02-.04c-.01-.03-.02-.05-.02-.06,0-.07.06-.17.17-.3.09-.11.13-.19.13-.24v-.02s-.02-.03-.02-.04c0-.14.11-.48.33-1.01.22-.53.36-.81.42-.84.1-.06.16-.34.17-.84,0-.37.03-.56.09-.56.01,0,.03,0,.04.02.03.01.05.02.06.02.07,0,.11-.09.11-.26,0-.07-.02-.18-.06-.32-.01-.07-.02-.12-.02-.15,0-.07.06-.15.19-.24.11-.09.17-.15.17-.19,0-.03-.02-.08-.06-.15-.07-.09-.11-.16-.11-.21,0-.04.03-.09.09-.15.14-.14.22-.36.24-.64.09-1.13.15-1.85.19-2.15v-.15c0-.56-.05-1.15-.15-1.78-.1-.63-.19-.98-.26-1.05ZM134.25,43.5s.04.03.09.04c.72.4,1.14.6,1.27.6h.02s.09.05.19.15c.21.23.37.34.45.34h.09c.06,0,.12.06.19.17.06.11.11.17.17.17.04,0,.09-.02.13-.06.06-.07.13-.11.21-.11.01,0,.04,0,.09.02.04.01.07.02.09.02.21,0,.49-.24.83-.71.34-.47.64-1.02.9-1.63.26-.62.4-1.12.4-1.53,0-.3-.04-.45-.13-.45-.07,0-.24.38-.52,1.14-.23.67-.37,1.01-.43,1.01,0-.06.07-.3.21-.73.11-.39.22-.73.32-1.03,0-.01,0-.04-.02-.06-.24-.62-.4-.92-.47-.92-.06,0-.09-.06-.11-.17-.01-.13-.06-.19-.13-.19-.04,0-.11-.09-.21-.26-.16-.29-.33-.52-.5-.7-.18-.18-.41-.27-.7-.27-.21,0-.38.04-.48.12-.11.08-.2.19-.29.33-.1.14-.19.21-.26.21-.03,0-.05,0-.06-.02h-.04c-.07,0-.13.03-.17.09l-.02.06s0,.02.02.02.04,0,.06-.02c.04-.03.07-.04.09-.04.03,0,.04.03.04.09,0,.1-.06.24-.17.41-.23.36-.48.93-.76,1.73-.28.79-.42,1.34-.42,1.62,0,.16,0,.26.02.3,0,.06,0,.14.02.26ZM139.92,58.73c.23-.33.59-1.08,1.1-2.26-.01-.03-.04-.07-.09-.13-.19-.3-.32-.45-.39-.45s-.15.07-.23.2c-.08.14-.21.38-.4.74-1.65,3.39-4.15,6.37-7.5,8.92-.66.49-1.63.97-2.92,1.46-.19.07-.29.11-.3.13-.07.07-.57.12-1.5.15h-.06c-.01-.06-.03-.14-.04-.26-.07-.33-.11-.63-.11-.9,0-.97.28-2.22.84-3.73.56-1.51,1.32-3.06,2.3-4.65.36-.56.54-.86.54-.9,0-.01.09-.18.28-.49,2.22-3.62,3.33-5.82,3.33-6.6,0-.14-.04-.32-.13-.54-.03-.04-.04-.07-.04-.09-.37.89-.87,1.93-1.49,3.13-.62,1.2-1.2,2.24-1.73,3.14-.53.9-.83,1.34-.9,1.34v-.02c0-.09.44-.88,1.31-2.38.76-1.3,1.26-2.2,1.5-2.69.24-.49.47-1.03.69-1.63.04-.14.08-.26.11-.34-.19-.8-.32-1.27-.41-1.4-.01-.03-.07-.11-.17-.24-.9-1.39-1.51-2.08-1.83-2.08-.29,0-.62.29-1.01.86-.39.57-1.1,1.75-2.13,3.54-1.56,2.72-2.6,4.63-3.1,5.71-.51,1.09-.94,2.31-1.3,3.67-.14.56-.24.84-.28.84-.01,0-.02-.02-.02-.06,0-.34.13-.94.39-1.78.17-.6.29-1.05.34-1.33,0-.07-.03-.11-.09-.11-.13,0-.31.6-.55,1.8-.24,1.2-.36,2.21-.38,3.01,0,1.65.23,2.92.68,3.82.45.9,1.21,1.63,2.29,2.17.44.23.9.5,1.38.82.2.13.32.19.37.19.01-.01.03-.02.04-.02.03,0,.08.01.15.04.23.07.46.11.69.11,1,0,2-.32,2.99-.97.14-.09.22-.13.24-.13.24,0,.82-.43,1.72-1.29.9-.86,1.78-1.78,2.62-2.75.84-.97,1.27-1.54,1.27-1.7,0-.04.11-.23.34-.56.44-.67.67-1.07.67-1.2v-.02s.06-.11.17-.3c.49-.77.73-1.32.73-1.65,0-.06.01-.11.04-.15ZM171.37,68.1c-.2,0-.79.14-1.76.41-.47.13-.85.23-1.14.3-.83-.24-1.46-.64-1.88-1.2-.42-.56-.63-1.41-.63-2.56,0-.53.18-1.62.54-3.27,0-.04,0-.1-.02-.17v-.11c0-.1.02-.15.06-.15l.02.02c.11,0,.17-.14.17-.43l-.02-.19c0-.06.04-.09.11-.09.04,0,.2-.32.47-.97,0-.01,0-.02-.02-.02h-.02s-.03.02-.04.02c-.04,0-.08-.07-.11-.21,0-.11,0-.17.02-.17s.04.02.06.06c.03.04.06.06.09.06.06,0,.19-.24.39-.73.14-.39.24-.62.3-.69.37-1,.64-1.98.82-2.94.17-.96.26-2.11.26-3.44-.04-.09-.1-.21-.17-.37-.26-.5-.45-.83-.57-1-.12-.16-.34-.33-.66-.48-.23-.1-.46-.26-.69-.47-.23-.21-.52-.51-.88-.88-.44-.44-.81-.79-1.11-1.04-.29-.25-.59-.43-.89-.53-.23-.07-.38-.15-.45-.24-.07-.09-.12-.19-.15-.32-.03-.07-.06-.13-.09-.16-.03-.04-.09-.05-.17-.05-.27,0-.74.24-1.42.72-.67.48-1.01.73-1.01.76.01,0,.15-.09.41-.26.97-.64,1.58-.97,1.83-.97.16.01.24.09.24.21,0,.16-.21.32-.64.49-.96.44-2.22,1.35-3.77,2.73-1.55,1.38-4.14,3.87-7.75,7.48-.16.16-.24.3-.24.43l.04.04h-.02s-.03-.02-.04-.02c-.09,0-.35.22-.79.66-.44.44-1.07,1.07-1.87,1.9-1.29,1.35-1.98,2.02-2.06,2.02-.01,0-.02,0-.02-.02,0-.03.11-.17.34-.43.27-.3.41-.47.41-.52,0-.01,0-.02-.02-.02s-.02,0-.02-.02c0-.04.26-.4.77-1.07.04,0,.07,0,.09.02.01,0,.03,0,.04.02.01.01.03.02.04.02,0-.01,0-.03-.02-.04-.01-.01-.02-.05-.02-.11,0-.07.02-.16.06-.26.01-.04.02-.07.02-.09-.04,0-.16.11-.37.34-.2.23-.3.37-.3.43,0,.04-.04.07-.11.09-.1.04-.15.11-.15.21-1.43,2.03-2.23,3.05-2.41,3.05,0-.23.57-1.17,1.7-2.81.52-.74.77-1.14.77-1.18,0-.14.42-.75,1.25-1.83.7-.9,1.05-1.4,1.05-1.5,0-.01,0-.02-.02-.02s-.04,0-.09.02c-.03.01-.05.02-.06.02s-.02,0-.02-.02l.02-.04c.01-.06.02-.09.02-.11,0-.07-.02-.11-.06-.11-.09,0-.25.18-.49.54-.17.27-.37.54-.6.79-.14.16-.21.29-.21.39,0,.03,0,.06.02.11.01.03.02.05.02.06l-.02.04-.19-.09s-.02,0-.02.02v.02s.02.03.02.04c0,.1-.19.37-.58.82-.32.37-.47.59-.47.67s-.06.14-.19.21c-.1.06-.15.11-.15.15l.02.04c0,.07-.11.24-.32.49-.11.14-.17.23-.17.26,0,.01,0,.02.02.02s.02,0,.02.02c0,.03-.05.09-.15.17-.17.16-.26.27-.26.34l.04.04s-.03.03-.09.04c-.09.01-.13.04-.13.09,0,.09-.29.55-.86,1.4,0,.01,0,.04.02.06l.02.02s-.03.07-.09.09c-.07,0-.11.03-.11.09,0,.03,0,.06.02.11.01.04.02.07.02.09,0,.04,0,.06-.02.06l-.04-.02c-.07,0-.22.21-.45.64-.26.49-.43.73-.52.73.01-.04.03-.07.04-.09,0-.01,0-.04.02-.06l-.02-.02c-.11.03-.17.09-.17.17,0,.01.01.04.04.09.04.04.06.08.06.11,0,.16-.28.51-.84,1.05-.56.54-.87.82-.95.82,0-.04.22-.31.67-.79.57-.63.86-.98.86-1.05,0-.01,0-.02-.02-.02-.03,0-.1.02-.21.06-.21.09-.37.13-.47.13-.11,0-.21-.05-.29-.14-.08-.09-.12-.18-.12-.25,0-.04.02-.06.06-.06.06,0,.09-.02.09-.06,0-.01,0-.04-.02-.09-.01-.04-.02-.07-.02-.09l.04.02s.03.02.04.02c.06,0,.14-.08.24-.24.06-.1.1-.15.13-.15.01.01.02.03.02.04,0,.16-.11.43-.32.82.09-.01.19-.03.32-.04.09,0,.15,0,.18-.02.04-.01.05-.04.05-.09,0-.03-.04-.07-.11-.13-.06-.04-.09-.07-.09-.09.04,0,.19.04.43.11.04.01.08.02.11.02-.06-.09-.12-.16-.19-.24-.06-.07-.09-.11-.09-.13s.04-.03.13-.04c.1,0,.15-.01.15-.04,0-.06-.04-.11-.12-.17-.08-.06-.16-.09-.25-.09l-.02.02-.02-.02s.02-.09.06-.17c.06-.13.09-.22.09-.28,0-.03,0-.06-.02-.09l-.02-.02s.03-.03.09-.04c.06-.01.09-.04.09-.06s0-.05-.02-.06l-.02-.09s0-.02.02-.02.04.02.09.05c.04.04.06.08.06.12,0,.03-.02.09-.06.17-.06.13-.09.22-.09.28,0,.14.06.21.19.21.24-.06.37-.19.37-.41l-.02-.17c0-.06,0-.09.02-.09l.04.02s.03.02.04.02c.04,0,.06-.03.06-.09,0-.04.09-.11.26-.19.26-.16.39-.29.39-.39,0-.14.02-.32.08-.54.05-.21.09-.32.12-.32.01,0,.02,0,.02.02s0,.02.02.02c.06,0,.15-.11.27-.32.12-.21.18-.39.18-.54,0-.03,0-.06-.02-.09l-.02-.02s0-.02.02-.02l.06.02s.04.02.09.02c.03,0,.05-.02.06-.06.01-.06.04-.09.06-.09l.04.02s.07.02.09.02.41-.64,1.18-1.93c0-.09.06-.14.19-.17.11-.03.17-.08.17-.15,0-.09.04-.14.11-.17.09-.03.13-.11.13-.26,0-.09-.02-.13-.06-.13l-.04.02s-.05.04-.06.04c-.03,0-.04-.01-.04-.04s.15-.12.45-.28c.27-.13.43-.34.47-.62.01-.1.04-.15.09-.15.13,0,.19-.03.19-.09.03-.26.09-.45.17-.57.09-.12.19-.23.3-.33.14-.11.23-.22.26-.32.04-.13.18-.24.41-.34.09-.04.13-.07.13-.09s-.03-.04-.09-.09c-.06-.03-.09-.05-.09-.06s.04-.03.11-.04c.13-.01.19-.04.19-.06l-.02-.04s-.02-.05-.02-.06c0-.09.06-.18.19-.28.1-.06.21-.21.32-.47.09-.2.16-.3.21-.3l.13.04c.1,0,.19-.07.26-.2.07-.14.11-.25.11-.33-.03,0-.1.08-.21.24-.06.1-.09.15-.11.15,0-.01,0-.05.02-.11.06-.2.09-.34.09-.41.03-.06.07-.09.13-.09l.11.02h.06c.09,0,.13-.04.13-.13,0-.13.02-.21.06-.25.04-.04.11-.05.19-.05.07-.01.13-.03.17-.04.09,0,.13-.05.13-.15,0-.06-.04-.09-.11-.09-.03,0-.06,0-.11.02l-.04.02-.02-.02c0-.06.15-.24.45-.54.39-.39.58-.62.58-.71,0-.03,0-.04-.02-.04-.03,0-.07.04-.13.13-.04.06-.07.09-.09.09s-.02-.05-.02-.15c0-.11.06-.19.17-.21.11-.03.26-.04.45-.04.07-.01.12-.05.14-.1.02-.05.03-.15.03-.31l-.02-.52c0-.1-.04-.15-.11-.15-.01,0-.04,0-.06.02-.03.01-.05.02-.06.02-.09,0-.22-.1-.41-.3-.06-.07-.1-.12-.13-.15.01,0,.04,0,.06.02.1.04.18.06.24.06.14,0,.29-.06.44-.18.15-.12.23-.2.23-.23l-.04.02s-.05.02-.06.02c-.06,0-.09-.04-.09-.13,0-.1.04-.15.11-.15.01,0,.04,0,.09.02.03.01.05.02.06.02.04,0,.14-.11.29-.34.15-.23.23-.35.23-.37s0-.02-.02-.02c-.04,0-.13.08-.26.24-.14.17-.24.26-.3.26,0-.07.13-.25.4-.55.26-.29.45-.44.55-.44.03,0,.05.02.06.06l.02-.09c.07-.23.16-.34.26-.34l-.02.04s-.02.06-.02.09c0,.04.02.08.06.11.04.03.09.04.13.04s.06-.03.06-.09c0-.01,0-.05-.02-.11-.01-.06-.02-.09-.02-.11,0-.1.03-.15.09-.15.07,0,.15,0,.24-.02.03-.01.06-.02.09-.02.1,0,.19.03.28.09.09.06.13.12.13.19,0,.01,0,.03-.02.04s-.02.03-.02.04c0,.03.04.05.13.06.11.01.17.05.17.11l-.02.06s-.04.06-.04.09c.03,0,.06-.02.1-.06.04-.04.05-.11.05-.19,0-.17-.03-.3-.08-.38-.05-.08-.12-.15-.2-.2-.1-.06-.15-.12-.15-.19,0-.09-.18-.34-.54-.75-.23-.24-.34-.39-.34-.43,0-.1-.11-.23-.33-.38-.22-.15-.45-.23-.7-.23-.39,0-.9.2-1.53.59-.63.39-1.3.93-2.02,1.62-.34.32-.55.47-.62.47-.03,0-.06.05-.09.15-.04.13-.09.19-.15.19-.11,0-.17.04-.17.11-.01.04-.34.41-.97,1.1-1.16,1.29-1.74,1.98-1.74,2.08.06,0,.42-.39,1.07-1.18.66-.79,1.02-1.18,1.07-1.18l.04.02c0,.1-.33.56-.99,1.38-2.12,2.59-3.88,5.4-5.29,8.41-1.4,3.02-2.13,5.55-2.19,7.59v1.42s.03.03.04.04c.16.17.3.3.42.39.12.09.26.14.42.15.42.07.71.17.87.29.16.12.29.26.38.42.04.07.08.11.11.13.09.03.16.04.24.04.36,0,.63-.13.82-.38.19-.25.28-.49.28-.72,0-.06,0-.09-.02-.09-.03,0-.09.08-.17.24-.21.34-.39.52-.54.52-.09,0-.13-.06-.13-.19,0-.26.47-.97,1.42-2.15.27-.33.41-.51.41-.54-.01,0-.05.02-.11.06l-.06.02c0-.09.11-.2.33-.33.22-.14.56-.2,1.02-.2,0-.01-.05-.04-.15-.09-.19-.09-.28-.14-.28-.17,0-.01.03-.06.09-.15.07-.11.11-.18.11-.19l-.09.06-.11.04-.02-.02c0-.06.07-.16.2-.32.14-.16.25-.24.33-.24.01,0,.02.01.02.04l-.02.06-.02.06s.04-.03.09-.09c.11-.11.2-.17.26-.17l.06.02.04.02s.02-.01.02-.04c-.01-.06-.02-.16-.02-.32l.02-.19s.04.07.09.13c.07.11.11.17.13.17s.03-.04.04-.11c.04-.29.16-.43.37-.43.1,0,.22.06.37.17.06.04.09.06.11.06.03,0,.04-.01.04-.04,0-.07-.05-.14-.16-.21-.11-.07-.22-.11-.33-.11-.06,0-.1,0-.13.02h-.04s.14-.13.43-.3c.33-.21.49-.34.49-.39l-.02-.02s-.06.01-.09.04c-.03.01-.05.02-.06.02s-.02-.01-.02-.04c0-.04,0-.08.02-.11.03-.07.15-.18.38-.31.22-.14.35-.2.4-.2.01,0,.04,0,.06.02l.04.02s.02,0,.02-.02c0-.23.18-.52.54-.86.36-.34.61-.52.75-.52h.02s.05.02.06.02.02,0,.02-.02v-.04s-.02-.05-.02-.06c0-.14.38-.58,1.15-1.31.77-.73,1.2-1.1,1.3-1.1.03,0,.04-.03.04-.09,0-.01,0-.04-.02-.06v-.06c0-.06.07-.13.21-.21.21-.13.34-.25.39-.37.07-.19.24-.35.49-.49.13-.07.19-.13.19-.17l-.04-.02c1.12-.97,1.68-1.49,1.68-1.55l-.02-.04.02-.02.09.04c.07,0,.16-.06.27-.17.11-.11.16-.21.16-.28,0-.03,0-.06-.02-.09l-.02-.04.04.02s.05.02.06.02c.09,0,.18-.05.29-.15.11-.1.16-.19.16-.28,0-.01,0-.04-.02-.06l-.02-.02s0-.02.02-.02c0,.01.02.02.06.02.11,0,.31-.14.6-.41.29-.27.43-.46.43-.56,0-.03.01-.04.04-.04.13,0,.3-.09.53-.27.22-.18.33-.33.33-.44v-.04l-.02-.02s0-.02.02-.02h.06c.07.01.12.02.15.02.16,0,.25-.12.28-.37.01-.07.03-.11.04-.11.01.01.02.03.02.04.03.07.07.11.13.11.01,0,.04,0,.06-.02.03-.01.06-.02.09-.02.07,0,.14.03.21.1.07.06.11.13.11.2,0,.03,0,.06-.02.11l-.02.02c.06,0,.19-.09.41-.28-.01.03-.04.06-.06.11-.09.14-.16.25-.23.31s-.14.1-.23.1c-.17-.04-.26-.09-.26-.15,0-.03.03-.04.09-.04.1-.01.15-.05.15-.11,0-.07-.06-.11-.17-.11-.1,0-.15.05-.15.15,0,.13-.01.25-.04.37-.01.03-.02.05-.02.06,0,.03,0,.04.02.04.03,0,.08-.04.15-.11-.07.24-.22.46-.45.64,0,.01,0,.02-.02.02l-.11-.02s-.06.04-.13.13c-.17.2-.29.3-.37.3-.04,0-.06-.01-.06-.04s.01-.06.04-.09l.02-.06s0-.02-.02-.02c-.03,0-.06.02-.1.05s-.05.09-.05.16c0,.01,0,.04.02.06.01.04.02.07.02.09,0,.07-.06.14-.17.21-.1.06-.15.11-.15.17,0,.01,0,.04.02.06.01.04.02.07.02.09s0,.02-.02.02l-.04-.02s-.05-.02-.06-.02c-.07,0-.16.06-.28.19-.07.09-.12.13-.15.13-.01,0-.02,0-.02-.02s0-.02-.02-.02c-.03,0-.09.06-.18.19-.09.13-.14.22-.14.28,0,.04.01.06.04.06s.09-.04.17-.11c.13-.1.22-.15.28-.15l.09.04v-.04s-.02-.05-.02-.06c0-.1.1-.19.3-.26.14-.06.24-.14.3-.26.13-.2.38-.44.75-.71.4-.24.64-.44.73-.6.04-.07.13-.14.26-.19.11-.04.53-.31,1.25-.82,1.1-.77,1.72-1.16,1.85-1.16,0,.11-.11.52-.32,1.22-.4,1.26-.6,2.08-.6,2.45,0,.09.01.13.04.13.04,0,.21-.48.49-1.44.24-.82.45-1.46.61-1.94.16-.48.3-.76.42-.83.11-.1.21-.15.3-.15.06,0,.09.02.09.06,0,.03-.01.07-.04.13-.62,1.62-1.1,3.39-1.46,5.33-.36,1.93-.54,3.72-.54,5.37,0,1.48.14,2.64.43,3.48.14.43.42.95.84,1.56.42.61.84,1.14,1.29,1.58.44.44.77.67.99.67.07,0,.14.04.21.11.11.14.34.21.67.21.07,0,.11.01.11.04-.01.01-.02.03-.02.04,0,.1.25.15.75.15.73,0,1.6-.08,2.61-.23s1.61-.3,1.82-.46c.1-.04.24-.11.43-.19.34-.16.52-.26.52-.3,0-.1-.08-.15-.24-.15ZM208.23,51.32s0,.05-.02.06l-.02.04c0,.06.07.09.21.11.13.01.19.04.19.09,0,.01,0,.04-.02.06-.01.04-.02.07-.02.09.01,0,.06-.04.13-.11.03-.01.06-.03.09-.04.04-.03.07-.04.09-.04.03,0,.04.01.04.04,0,.06.1.15.3.28.26.16.39.28.39.37v.02s-.02.05-.02.06.03.04.09.09c.2.19.3.41.3.67,0,.04-.01.08-.04.11-.03.01-.04.03-.04.04,0,.06.03.13.1.23.06.09.11.14.14.14.11-.6.17-.94.17-1.01,0-.16-.09-.33-.28-.52-.13-.11-.22-.25-.28-.41-.04-.07-.08-.11-.11-.11-.01,0-.04,0-.06.02-.03.01-.05.02-.06.02-.04,0-.06-.03-.06-.09,0-.26-.42-.52-1.26-.77s-1.91-.48-3.21-.66c-1.3-.18-2.6-.27-3.89-.27l-2.32-.02c-1.1-.66-2.19-1.22-3.27-1.7s-2.06-.86-2.96-1.17c-.9-.31-1.43-.46-1.57-.46,0,.03.52.23,1.55.6,1.23.44,2.28.87,3.16,1.28.87.41,1.53.75,1.98,1.02.44.27.67.45.67.54,0,.07-.06.11-.17.11-.32,0-.78-.17-1.4-.52-.97-.53-2.18-1.06-3.61-1.6-1.43-.54-3.19-1.16-5.26-1.86-1.55-.52-2.66-.9-3.33-1.15-.67-.25-1.01-.44-1.01-.57,0-.09.04-.13.13-.13.07,0,.26.06.58.17.29.1.46.15.52.15,0-.01-.09-.06-.28-.15-.44-.2-.67-.34-.67-.43,0-.11.13-.35.39-.71.54-.83,2.36-2.61,5.44-5.35l.06-.04c.33-.29.75-.62,1.27-.99.73-.54,1.5-1.13,2.32-1.76.17,0,.69-.32,1.55-.97l.21-.17.04.02c.07,0,.19-.07.34-.2.16-.14.24-.23.24-.29,0-.1-.03-.15-.09-.15s-.19.1-.41.3c-.19.17-.3.26-.34.26-.1,0-.29.12-.58.37-.1.09-.16.13-.17.13s-.02,0-.02-.02c.03-.03.04-.05.04-.06s0-.02-.02-.02c-.03,0-.09.04-.19.13-.19.16-.32.24-.39.24-.03,0-.05,0-.06-.02l-.02-.02s0,.06.02.09c.01.01.02.04.02.06,0,.06-.04.09-.13.09s-.18.06-.28.19c-.07.09-.13.13-.17.13l-.02-.02c-.1,0-.45.28-1.05.84-.39.34-.6.52-.64.52,0-.03,0-.08.02-.15.01-.03.02-.05.02-.06l-.02-.02s-.08.05-.16.14c-.08.09-.12.18-.12.25,0,.01,0,.04.02.06v.04s-.01.04-.04.04h-.04s-.06-.02-.09-.02c-.1,0-.46.26-1.07.77-.5.43-.79.64-.86.64-.01,0-.03,0-.04-.02h-.02c0,.11-.61.69-1.83,1.72-.99.82-1.48,1.26-1.48,1.33-.03.07-.11.14-.26.19-.16.06-.24.13-.24.21v.02s.02.05.02.06c0,.03-.14.2-.41.52-.39.43-.7.8-.93,1.12-.24.32-.35.57-.35.75,0,.04,0,.06-.02.06-.14-.1-.21-.17-.21-.21,0-.03.03-.06.09-.09.07-.04.11-.09.11-.13,0-.01,0-.04-.02-.09-.01-.04-.02-.08-.02-.11,0-.37.55-1.14,1.65-2.3,1.1-1.16,2.48-2.44,4.14-3.85,1.65-1.4,3.25-2.62,4.78-3.65,1.79-1.2,3.85-2.36,6.18-3.47,2.33-1.11,4.54-2,6.65-2.67,2.11-.67,3.76-1.01,4.96-1.01.16,0,.24-.03.24-.09,0-.07-.09-.11-.28-.11-.03,0-.07,0-.13.02h-.11c-.09,0-.16-.03-.21-.09-.03-.03-.05-.04-.06-.04-.04,0-.14.06-.28.17-.13.1-.21.15-.24.15,0-.01.03-.06.09-.13.06-.09.09-.14.09-.17s-.05-.04-.15-.04c-.17,0-.37-.03-.58-.09-.07-.03-.12-.04-.15-.04-.04,0-.06.02-.06.06,0,.03,0,.08.02.15l.02.04s0,.02-.02.02c-.06,0-.15-.03-.27-.1-.12-.06-.18-.13-.18-.18,0-.04.05-.07.15-.09.36-.04.71-.25,1.05-.62l-.17.58c.36-.17.54-.33.56-.47.01,0,.06.05.13.15.04.07.08.14.11.19.01-.01.04-.04.06-.09.14-.2.24-.3.3-.3.01,0,.05.04.11.11.07.09.12.13.15.13.01,0,.04-.02.06-.06.1-.11.21-.17.32-.17.13,0,.19.02.19.06l-.02.04c0,.1.05.18.15.24h.02l-.02-.04s-.02-.05-.02-.06c0-.06.04-.11.12-.15.08-.04.15-.06.23-.06.04,0,.07,0,.09.02,0,.04-.03.08-.09.11-.07.03-.11.07-.11.13,0,.11.05.17.15.17.09,0,.13-.02.13-.06l-.02-.04s-.02-.05-.02-.06.02-.02.06-.02c.1,0,.2.05.31.14.11.09.16.25.16.46,0,.11-.04.24-.13.37-.09.1-.13.19-.13.28,0,.06.01.09.04.09.01,0,.04,0,.06-.02l.04-.02s.04.03.04.09c0,.14-.11.49-.34,1.03-.34.85-.52,1.43-.52,1.76,0,.42.05.62.15.62.07,0,.14-.09.19-.28.06-.14.21-.41.45-.79.43-.67.78-1.34,1.04-1.99.26-.65.4-1.42.4-2.31,0-.8-.14-1.52-.42-2.15-.28-.63-.68-1.07-1.19-1.33-.36-.17-1.02-.34-1.99-.5-.97-.16-1.75-.25-2.35-.25-.4,0-.6.04-.6.13,0,.06.04.09.13.09h.06s.06-.02.11-.02c.06,0,.09.02.09.06s-.05.08-.16.1-.32.06-.63.12c-1.38.21-2.67.5-3.89.86-6.85,1.98-12.71,5.36-17.6,10.16-.74.74-1.15,1.12-1.22,1.12,0-.27.72-1.05,2.16-2.34s3.12-2.61,5.05-3.96c1.93-1.35,3.65-2.36,5.17-3.02.64-.27,1-.44,1.07-.52.11-.07.76-.32,1.94-.74,1.18-.42,1.93-.66,2.25-.72.19-.01.38-.09.58-.24.03-.03.05-.04.06-.04l.02.02s.01.02.04.02c.09,0,.18-.02.28-.06.44-.16,1.39-.37,2.84-.62.77-.13,1.16-.21,1.16-.24,0-.04-.07-.06-.21-.06-.06,0-.14,0-.26.02-.1.01-.17.02-.21.02-.11,0-.17-.02-.17-.06.04-.09.11-.13.21-.13.03,0,.07,0,.13.02.06.01.09.02.11.02.09,0,.14-.04.15-.11.01-.06.05-.09.11-.09.03,0,.07,0,.13.02.06.01.09.02.11.02.1,0,.17-.05.21-.15l.02-.13s0-.02-.02-.02l-.06.04c-.1.07-.17.11-.21.11-.01,0-.03,0-.04-.02-.03-.01-.05-.02-.06-.02-.03,0-.08.02-.15.06-.16.09-.29.13-.39.13-.01-.01-.04-.02-.09-.02-.03,0-.05.01-.06.04-.1.09-.33.14-.69.17.01,0,.04,0,.06.02.19.07.28.12.28.15s-.14.04-.41.04c-.93,0-1.41.07-1.44.21,0,.01,0,.02-.02.02s-.03,0-.04-.02c-.06-.03-.12-.04-.19-.04-.42.06-.62.14-.62.24l.02.06s0,.02-.02.02h-.02s-.09-.04-.13-.04c-.16,0-.87.19-2.15.58l-.28.06c-.79.14-2.32.79-4.6,1.96s-4.01,2.17-5.2,3.03c-1.45,1.05-2.79,2.09-4.02,3.15-1.23,1.05-1.85,1.67-1.85,1.86v.04s.02.04.02.06c0,.04-.02.08-.05.12-.04.04-.07.05-.1.05-.01,0-.02,0-.02-.02s.02-.06.06-.13l.02-.06s-.2.15-.52.46c-.32.31-.47.49-.47.55l.02.02c.07,0,.21-.13.43-.39.13-.16.21-.24.24-.24l.02.02c0,.13-.16.39-.49.79-.89,1.12-1.61,2.21-2.18,3.29-.57,1.07-1.11,2.28-1.62,3.63l-.02,1.33v1.31c.23.4.52.94.88,1.61.49.92.9,1.6,1.24,2.04.34.44.84.87,1.51,1.29.67.42,1.7.9,3.07,1.46.64.3,1.71.74,3.2,1.33l.77.32s-.1.07-.3.12c-.2.05-.34.08-.41.08,0-.01.04-.05.13-.11l.06-.06-.02-.02c-.07,0-.15.01-.24.04-.09.03-.13.08-.13.15,0,.11-.04.17-.11.17-.04,0-.08-.03-.11-.09-.01-.04-.04-.06-.06-.06-.3,0-1.48.4-3.52,1.2-1.39.57-2.81,1.28-4.26,2.12-1.45.84-2.44,1.51-2.95,2.03-.24.27-.44.41-.58.41l-.04-.02h-.02s-.04.03-.04.09c0,.11-.06.17-.17.17-.06,0-.1,0-.12.02-.02.01-.07.06-.14.13-.24.3-.58.66-1.01,1.07-.86.82-1.64,1.73-2.34,2.75-.7,1.02-1.11,1.83-1.22,2.43-.01.09-.05.25-.11.49-.14.62-.21,1.12-.21,1.53,0,.62.07,1.14.21,1.57.14.43.44,1.07.88,1.91.17.34.31.62.41.82,1.33,2.64,3.79,4.2,7.37,4.68.33.04,1.03.06,2.11.06.99,0,1.68-.01,2.08-.04.4-.03.87-.08,1.42-.15.13-.01.23-.03.3-.04.97-.13,2.08-.43,3.32-.89,1.24-.47,2.39-1.01,3.45-1.62,1.15-.64,2.22-1.55,3.23-2.71s1.82-2.4,2.43-3.73c.61-1.32.91-2.53.91-3.62v-.21c-.03-.09-.05-.63-.06-1.62-.01-1-.04-3.19-.06-6.58-.04-.1-.09-.22-.15-.37-.13-.34-.24-.6-.33-.76-.09-.16-.35-.56-.76-1.19-.04-.07-.07-.12-.09-.15l.34-.02c.24,0,.44,0,.58.02h.09c.06,0,.09-.02.09-.06,0-.03-.01-.08-.04-.15l-.02-.02s.04.01.06.04c.09.09.16.13.21.13.04,0,.1-.03.17-.09.06-.04.1-.06.13-.06.01,0,.03,0,.04.02.04.09.17.13.39.13.37,0,.62-.03.75-.09.06-.03.13-.04.21-.04.07,0,.19.01.37.04.2.03.36.04.47.04.1,0,.21-.01.32-.04.07-.01.12-.02.15-.02.06,0,.09.02.11.06.03.09.13.13.3.13.26,0,.42-.04.49-.11.07-.07.11-.19.13-.34v-.02c.01.07.03.14.04.19.01.06.04.15.06.28.04-.06.1-.13.17-.21.07-.09.12-.13.15-.13.09.04.13.09.13.13,0,.03-.03.05-.09.06-.09.03-.13.07-.13.13s.02.09.06.09c.01,0,.03,0,.04-.02.04-.01.08-.02.11-.02.13,0,.29.06.49.19.04.03.08.05.11.06-.01-.01-.04-.04-.09-.09-.1-.13-.19-.24-.26-.32-.06-.07-.11-.14-.15-.19.03.01.06.04.11.09.24.17.41.26.49.26.04,0,.11-.03.21-.09.1-.06.17-.09.21-.09.07,0,.14.03.19.1.06.06.09.11.09.14-.01,0-.04,0-.09-.02-.07-.03-.13-.04-.17-.04-.14,0-.21.06-.21.19l.04-.02c.06-.03.11-.04.15-.04.07,0,.16.02.26.06.09.04.16.06.21.06s.15-.03.28-.09c.07-.03.11-.04.13-.04ZM193.09,64.83c-1.36.9-2.59,1.62-3.67,2.16-1.09.54-1.78.81-2.06.81-.03,0-.04,0-.04-.02l.06-.09c.07-.1.11-.16.11-.17l-.95.6c-.16.16-1.02.39-2.59.71-1.57.32-2.67.47-3.32.47s-1.32-.08-2.06-.23c-.74-.15-1.38-.34-1.9-.56-.52-.22-.78-.43-.78-.63,0-.06.04-.09.13-.09s.27.05.56.15c.46.17.95.32,1.47.43.52.11,1.18.17,1.99.17,1.33,0,2.77-.18,4.33-.55,1.55-.37,3.06-.88,4.52-1.56.52-.26.97-.44,1.38-.54-.06.04-.14.11-.24.19-.14.11-.21.19-.21.21l.02.02c.13,0,.49-.19,1.07-.58.3-.2.54-.36.73-.47.74-.44,2.48-1.58,5.22-3.42-1.15,1.07-2.4,2.06-3.76,2.96ZM188.06,66.49c-1.29.5-2.03.78-2.23.84,0,.03-.27.13-.82.3-.54.17-1.23.33-2.05.48-.82.15-1.71.23-2.65.23-1.15,0-2.14-.1-2.99-.31-.85-.21-1.27-.48-1.27-.81,0-.42.25-1.07.76-1.98.51-.9,1.1-1.74,1.77-2.51,1.5-1.73,3.56-3.41,6.17-5.04,2.61-1.63,5.13-2.8,7.56-3.51.36-.11.54-.21.54-.28,0-.03-.04-.04-.11-.04-.21,0-.46.08-.73.24-.09.04-.14.06-.15.06h-.02s0-.02-.02-.02c-.13,0-.51.12-1.14.35-.63.24-.95.39-.97.46-.03.04-.06.06-.09.06s-.05,0-.06-.02c-.27,0-1.26.44-2.98,1.32-1.71.88-2.61,1.4-2.7,1.56-.04.07-.09.11-.15.11-.19,0-.76.38-1.72,1.14-.96.76-1.8,1.5-2.51,2.21-1.88,1.83-3.14,3.69-3.78,5.56-.06.17-.09.26-.11.26-.04-.03-.06-.13-.06-.3,0-.3.2-.83.59-1.58.39-.75.83-1.45,1.32-2.09,1.25-1.66,3.15-3.35,5.71-5.08,2.56-1.73,5.04-2.99,7.43-3.79.5-.17.75-.31.75-.41l-.02-.04.02-.02s.06,0,.09.02c.01.01.07.02.17.02.26,0,.62-.08,1.1-.24-.01-.01-.03-.04-.04-.06-.11-.2-.2-.3-.26-.3-.03,0-.06.02-.11.06-.1.1-.21.15-.34.15-.07,0-.15-.04-.24-.11-.06-.06-.11-.09-.15-.09s-.06.02-.06.06c0,.03,0,.06.02.09.01.01.02.04.02.06,0,.01,0,.02-.02.02s-.05,0-.11-.02c-.06-.01-.1-.02-.13-.02-.06,0-.11.02-.17.06-.04.03-.09.04-.13.04-.1,0-.15-.02-.15-.06,0-.24.48-.51,1.44-.79.46-.2.83-.3,1.12-.3.31,0,.67.12,1.07.35.4.24.6.38.6.44,0,.01-.15.06-.45.13-.5.11-.75.2-.75.26.19,0,.67-.11,1.44-.32.77.53,1.53,1.17,2.28,1.91.74.74,1.24,1.37,1.48,1.87-1.86,4.14-5.54,7.28-11.02,9.41ZM262.97,68.1c-.2,0-.79.14-1.76.41-.47.13-.85.23-1.14.3-.83-.24-1.46-.64-1.88-1.2-.42-.56-.63-1.41-.63-2.56,0-.53.18-1.62.54-3.27,0-.04,0-.1-.02-.17v-.11c0-.1.02-.15.06-.15l.02.02c.11,0,.17-.14.17-.43l-.02-.19c0-.06.04-.09.11-.09.04,0,.2-.32.47-.97,0-.01,0-.02-.02-.02h-.02s-.03.02-.04.02c-.04,0-.08-.07-.11-.21,0-.11,0-.17.02-.17s.04.02.06.06c.03.04.06.06.09.06.06,0,.19-.24.39-.73.14-.39.24-.62.3-.69.37-1,.64-1.98.82-2.94.17-.96.26-2.11.26-3.44-.04-.09-.1-.21-.17-.37-.26-.5-.45-.83-.57-1-.12-.16-.34-.33-.66-.48-.23-.1-.46-.26-.69-.47-.23-.21-.52-.51-.88-.88-.44-.44-.81-.79-1.11-1.04-.29-.25-.59-.43-.89-.53-.23-.07-.38-.15-.45-.24-.07-.09-.12-.19-.15-.32-.03-.07-.06-.13-.09-.16-.03-.04-.09-.05-.17-.05-.27,0-.74.24-1.42.72-.67.48-1.01.73-1.01.76.01,0,.15-.09.41-.26.97-.64,1.58-.97,1.83-.97.16.01.24.09.24.21,0,.16-.21.32-.64.49-.96.44-2.22,1.35-3.77,2.73-1.55,1.38-4.14,3.87-7.75,7.48-.16.16-.24.3-.24.43l.04.04h-.02s-.03-.02-.04-.02c-.09,0-.35.22-.79.66-.44.44-1.07,1.07-1.87,1.9-1.29,1.35-1.98,2.02-2.06,2.02-.01,0-.02,0-.02-.02,0-.03.11-.17.34-.43.27-.3.41-.47.41-.52,0-.01,0-.02-.02-.02s-.02,0-.02-.02c0-.04.26-.4.77-1.07.04,0,.07,0,.09.02.01,0,.03,0,.04.02.01.01.03.02.04.02,0-.01,0-.03-.02-.04-.01-.01-.02-.05-.02-.11,0-.07.02-.16.06-.26.01-.04.02-.07.02-.09-.04,0-.16.11-.37.34-.2.23-.3.37-.3.43,0,.04-.04.07-.11.09-.1.04-.15.11-.15.21-1.43,2.03-2.23,3.05-2.41,3.05,0-.23.57-1.17,1.7-2.81.52-.74.77-1.14.77-1.18,0-.14.42-.75,1.25-1.83.7-.9,1.05-1.4,1.05-1.5,0-.01,0-.02-.02-.02s-.04,0-.09.02c-.03.01-.05.02-.06.02s-.02,0-.02-.02l.02-.04c.01-.06.02-.09.02-.11,0-.07-.02-.11-.06-.11-.09,0-.25.18-.49.54-.17.27-.37.54-.6.79-.14.16-.21.29-.21.39,0,.03,0,.06.02.11.01.03.02.05.02.06l-.02.04-.19-.09s-.02,0-.02.02v.02s.02.03.02.04c0,.1-.19.37-.58.82-.32.37-.47.59-.47.67s-.06.14-.19.21c-.1.06-.15.11-.15.15l.02.04c0,.07-.11.24-.32.49-.11.14-.17.23-.17.26,0,.01,0,.02.02.02s.02,0,.02.02c0,.03-.05.09-.15.17-.17.16-.26.27-.26.34l.04.04s-.03.03-.09.04c-.09.01-.13.04-.13.09,0,.09-.29.55-.86,1.4,0,.01,0,.04.02.06l.02.02s-.03.07-.09.09c-.07,0-.11.03-.11.09,0,.03,0,.06.02.11.01.04.02.07.02.09,0,.04,0,.06-.02.06l-.04-.02c-.07,0-.22.21-.45.64-.26.49-.43.73-.52.73.01-.04.03-.07.04-.09,0-.01,0-.04.02-.06l-.02-.02c-.11.03-.17.09-.17.17,0,.01.01.04.04.09.04.04.06.08.06.11,0,.16-.28.51-.84,1.05-.56.54-.87.82-.95.82,0-.04.22-.31.67-.79.57-.63.86-.98.86-1.05,0-.01,0-.02-.02-.02-.03,0-.1.02-.21.06-.21.09-.37.13-.47.13-.11,0-.21-.05-.29-.14-.08-.09-.12-.18-.12-.25,0-.04.02-.06.06-.06.06,0,.09-.02.09-.06,0-.01,0-.04-.02-.09-.01-.04-.02-.07-.02-.09l.04.02s.03.02.04.02c.06,0,.14-.08.24-.24.06-.1.1-.15.13-.15.01.01.02.03.02.04,0,.16-.11.43-.32.82.09-.01.19-.03.32-.04.09,0,.15,0,.18-.02.04-.01.05-.04.05-.09,0-.03-.04-.07-.11-.13-.06-.04-.09-.07-.09-.09.04,0,.19.04.43.11.04.01.08.02.11.02-.06-.09-.12-.16-.19-.24-.06-.07-.09-.11-.09-.13s.04-.03.13-.04c.1,0,.15-.01.15-.04,0-.06-.04-.11-.12-.17-.08-.06-.16-.09-.25-.09l-.02.02-.02-.02s.02-.09.06-.17c.06-.13.09-.22.09-.28,0-.03,0-.06-.02-.09l-.02-.02s.03-.03.09-.04c.06-.01.09-.04.09-.06s0-.05-.02-.06l-.02-.09s0-.02.02-.02.04.02.09.05c.04.04.06.08.06.12,0,.03-.02.09-.06.17-.06.13-.09.22-.09.28,0,.14.06.21.19.21.24-.06.37-.19.37-.41l-.02-.17c0-.06,0-.09.02-.09l.04.02s.03.02.04.02c.04,0,.06-.03.06-.09,0-.04.09-.11.26-.19.26-.16.39-.29.39-.39,0-.14.02-.32.08-.54.05-.21.09-.32.12-.32.01,0,.02,0,.02.02s0,.02.02.02c.06,0,.15-.11.27-.32.12-.21.18-.39.18-.54,0-.03,0-.06-.02-.09l-.02-.02s0-.02.02-.02l.06.02s.04.02.09.02c.03,0,.05-.02.06-.06.01-.06.04-.09.06-.09l.04.02s.07.02.09.02.41-.64,1.18-1.93c0-.09.06-.14.19-.17.11-.03.17-.08.17-.15,0-.09.04-.14.11-.17.09-.03.13-.11.13-.26,0-.09-.02-.13-.06-.13l-.04.02s-.05.04-.06.04c-.03,0-.04-.01-.04-.04s.15-.12.45-.28c.27-.13.43-.34.47-.62.01-.1.04-.15.09-.15.13,0,.19-.03.19-.09.03-.26.09-.45.17-.57.09-.12.19-.23.3-.33.14-.11.23-.22.26-.32.04-.13.18-.24.41-.34.09-.04.13-.07.13-.09s-.03-.04-.09-.09c-.06-.03-.09-.05-.09-.06s.04-.03.11-.04c.13-.01.19-.04.19-.06l-.02-.04s-.02-.05-.02-.06c0-.09.06-.18.19-.28.1-.06.21-.21.32-.47.09-.2.16-.3.21-.3l.13.04c.1,0,.19-.07.26-.2.07-.14.11-.25.11-.33-.03,0-.1.08-.21.24-.06.1-.09.15-.11.15,0-.01,0-.05.02-.11.06-.2.09-.34.09-.41.03-.06.07-.09.13-.09l.11.02h.06c.09,0,.13-.04.13-.13,0-.13.02-.21.06-.25.04-.04.11-.05.19-.05.07-.01.13-.03.17-.04.09,0,.13-.05.13-.15,0-.06-.04-.09-.11-.09-.03,0-.06,0-.11.02l-.04.02-.02-.02c0-.06.15-.24.45-.54.39-.39.58-.62.58-.71,0-.03,0-.04-.02-.04-.03,0-.07.04-.13.13-.04.06-.07.09-.09.09s-.02-.05-.02-.15c0-.11.06-.19.17-.21.11-.03.26-.04.45-.04.07-.01.12-.05.14-.1.02-.05.03-.15.03-.31l-.02-.52c0-.1-.04-.15-.11-.15-.01,0-.04,0-.06.02-.03.01-.05.02-.06.02-.09,0-.22-.1-.41-.3-.06-.07-.1-.12-.13-.15.01,0,.04,0,.06.02.1.04.18.06.24.06.14,0,.29-.06.44-.18.15-.12.23-.2.23-.23l-.04.02s-.05.02-.06.02c-.06,0-.09-.04-.09-.13,0-.1.04-.15.11-.15.01,0,.04,0,.09.02.03.01.05.02.06.02.04,0,.14-.11.29-.34.15-.23.23-.35.23-.37s0-.02-.02-.02c-.04,0-.13.08-.26.24-.14.17-.24.26-.3.26,0-.07.13-.25.4-.55.26-.29.45-.44.55-.44.03,0,.05.02.06.06l.02-.09c.07-.23.16-.34.26-.34l-.02.04s-.02.06-.02.09c0,.04.02.08.06.11.04.03.09.04.13.04s.06-.03.06-.09c0-.01,0-.05-.02-.11-.01-.06-.02-.09-.02-.11,0-.1.03-.15.09-.15.07,0,.15,0,.24-.02.03-.01.06-.02.09-.02.1,0,.19.03.28.09.09.06.13.12.13.19,0,.01,0,.03-.02.04-.01.01-.02.03-.02.04,0,.03.04.05.13.06.11.01.17.05.17.11l-.02.06s-.04.06-.04.09c.03,0,.06-.02.1-.06.04-.04.05-.11.05-.19,0-.17-.03-.3-.08-.38-.05-.08-.12-.15-.2-.2-.1-.06-.15-.12-.15-.19,0-.09-.18-.34-.54-.75-.23-.24-.34-.39-.34-.43,0-.1-.11-.23-.33-.38-.22-.15-.45-.23-.7-.23-.39,0-.9.2-1.53.59-.63.39-1.3.93-2.02,1.62-.34.32-.55.47-.62.47-.03,0-.06.05-.09.15,0,.02-.01.02-.02.04-.7-.61-1.6-1.1-2.74-1.43-1.31-.39-2.82-.58-4.52-.58-2.74,0-5.65.49-8.74,1.46-.62.19-1.05.37-1.31.56-.26.19-.39.42-.39.69,0,.2.09.49.28.86.1.19.19.4.26.64.03.23.18.45.44.68.26.22.94.67,2.03,1.34.19.13.31.23.38.31.06.08.1.19.1.33,0,.32-.17.92-.5,1.8-.34.89-.71,1.7-1.11,2.45-.4.74-.69,1.12-.86,1.12-.01,0-.02,0-.02-.02h-.04c-.07,0-.18.09-.32.28-.04.04-.07.08-.09.11l.09-.09c.13-.1.21-.15.24-.15s.04.01.04.04c0,.16-.18.45-.54.87-.36.42-.57.63-.64.63,0-.01.09-.14.26-.37.26-.33.43-.56.52-.69l.02-.09c-.06,0-.24.19-.55.57-.31.38-.46.6-.46.66l.02.02s.06-.04.11-.04.06.02.06.06c0,.07-.05.14-.14.21-.09.07-.19.11-.29.11-.03,0-.06.04-.09.13-.06.14-.14.21-.24.21-.06,0-.09.02-.09.06v.02s.02.03.02.04c0,.13-.48.67-1.44,1.61-.96.95-1.74,1.64-2.34,2.08-1.15.86-2.12,1.46-2.92,1.79-.8.34-1.74.58-2.81.72-.01-.04-.04-.09-.06-.15-.13-.36-.19-.69-.19-.99,0-1.13.54-2.67,1.63-4.62,1.09-1.95,2.55-3.98,4.38-6.1.53-.62,1.19-1.37,1.98-2.26.97-1.12,1.59-1.84,1.84-2.17.25-.33.38-.6.38-.82,0-.09-.02-.16-.05-.21-.04-.06-.07-.09-.1-.09-.06,0-.09.06-.09.19,0,.07-.68.83-2.04,2.28-1.2,1.27-1.87,2.01-2,2.19-.04.06-.19.24-.45.56-.87,1.06-1.72,2.14-2.54,3.23s-1.57,2.32-2.27,3.67c-.69,1.35-1.04,2.56-1.04,3.62,0,.23.03.51.09.84.03.19.04.32.04.39,0,.17-.03.26-.09.26s-.12-.13-.18-.38c-.06-.25-.1-.53-.1-.83,0-1.43.69-3.29,2.06-5.56s3.33-4.78,5.87-7.5c.1-.11.24-.27.43-.47.77-.82,1.28-1.38,1.51-1.7.24-.31.35-.61.35-.88,0-.14-.03-.3-.1-.48-.06-.18-.18-.43-.33-.76-.07-.13-.12-.23-.15-.3-.29-.59-.53-1-.74-1.24-.21-.24-.45-.35-.72-.35-.16,0-.57.15-1.22.44-.66.29-1.01.49-1.05.59-.01.04-.09.07-.21.09-.11.01-.17.04-.17.06.01,0,.02.01.02.04,0,.09-.21.3-.62.64-1.53,1.27-2.92,2.75-4.16,4.43-1.24,1.68-2.22,3.38-2.93,5.11-.72,1.73-1.07,3.32-1.07,4.77,0,1.22.23,2.27.7,3.17.47.9,1.15,1.57,2.05,2.03.43.21.89.51,1.4.88.34.26.64.44.88.54.24.1.58.15,1.01.15.72,0,1.53-.15,2.44-.46.91-.31,1.75-.72,2.52-1.24.56-.37,1.2-.86,1.91-1.45.72-.59,1.07-.93,1.07-1.02l-.02-.02s.04-.06.13-.06c.07-.01.26-.19.56-.52.39-.44.63-.67.73-.67.03,0,.04-.01.04-.04,0-.13.13-.34.38-.64.25-.3.43-.45.55-.45.01,0,.04,0,.06.02h.02s.02,0,.02-.02l-.02-.02s-.04-.09-.04-.13c0-.1.05-.21.14-.32.09-.11.19-.17.29-.17.01,0,.04,0,.06.02l.04.02s.02,0,.02-.02,0-.03-.02-.04v-.04c0-.07.06-.21.17-.43.11-.21.26-.44.43-.67,1.48-2.15,2.21-3.97,2.21-5.48,0-.2.02-.37.05-.5.04-.14.08-.2.12-.2.06,0,.09.11.09.34,0,.09,0,.29-.02.6-.03.39-.04.65-.04.79l.02.39s.06-.09.09-.26c.03-.17.04-.34.04-.52,0-.73-.12-1.67-.35-2.8s-.48-1.92-.74-2.33c-.16-.27-.24-.45-.24-.54,0-.1.09-.15.26-.15.09,0,.21-.04.39-.11.31-.11.61-.18.88-.19.23-.03.57-.08,1.01-.15,1.02-.17,1.98-.3,2.89-.38.91-.08,2.15-.12,3.73-.12s2.5-.04,2.64-.13h.02c.06,0,.12.04.19.11.04.04.14.09.27.15-1.06,1.18-1.61,1.84-1.61,1.93.06,0,.42-.39,1.07-1.18.25-.3.45-.53.61-.72.05.02.12.05.19.07-.16.22-.38.5-.67.86-2.12,2.59-3.88,5.4-5.29,8.41-1.4,3.02-2.13,5.55-2.19,7.59v1.42l.04.04c.16.17.3.3.42.39.12.09.26.14.42.15.42.07.71.17.87.29.16.12.29.26.38.42.04.07.08.11.11.13.09.03.16.04.24.04.36,0,.63-.13.82-.38.19-.25.28-.49.28-.72,0-.06,0-.09-.02-.09-.03,0-.09.08-.17.24-.21.34-.39.52-.54.52-.09,0-.13-.06-.13-.19,0-.26.47-.97,1.42-2.15.27-.33.41-.51.41-.54-.01,0-.05.02-.11.06l-.06.02c0-.09.11-.2.33-.33.22-.14.56-.2,1.02-.2,0-.01-.05-.04-.15-.09-.19-.09-.28-.14-.28-.17,0-.01.03-.06.09-.15.07-.11.11-.18.11-.19l-.09.06-.11.04-.02-.02c0-.06.07-.16.2-.32.14-.16.25-.24.33-.24.01,0,.02.01.02.04l-.02.06-.02.06s.04-.03.09-.09c.11-.11.2-.17.26-.17l.06.02.04.02s.02-.01.02-.04c-.01-.06-.02-.16-.02-.32l.02-.19s.04.07.09.13c.07.11.11.17.13.17s.03-.04.04-.11c.04-.29.16-.43.37-.43.1,0,.22.06.37.17.06.04.09.06.11.06.03,0,.04-.01.04-.04,0-.07-.05-.14-.16-.21-.11-.07-.22-.11-.33-.11-.06,0-.1,0-.13.02h-.04s.14-.13.43-.3c.33-.21.49-.34.49-.39l-.02-.02s-.06.01-.09.04c-.03.01-.05.02-.06.02s-.02-.01-.02-.04c0-.04,0-.08.02-.11.03-.07.15-.18.38-.31.22-.14.35-.2.4-.2.01,0,.04,0,.06.02l.04.02s.02,0,.02-.02c0-.23.18-.52.54-.86.36-.34.61-.52.75-.52h.02s.05.02.06.02.02,0,.02-.02v-.04s-.02-.05-.02-.06c0-.14.38-.58,1.15-1.31.77-.73,1.2-1.1,1.3-1.1.03,0,.04-.03.04-.09,0-.01,0-.04-.02-.06v-.06c0-.06.07-.13.21-.21.21-.13.34-.25.39-.37.07-.19.24-.35.49-.49.13-.07.19-.13.19-.17l-.04-.02c1.12-.97,1.68-1.49,1.68-1.55l-.02-.04.02-.02.09.04c.07,0,.16-.06.27-.17.11-.11.16-.21.16-.28,0-.03,0-.06-.02-.09l-.02-.04.04.02s.05.02.06.02c.09,0,.18-.05.29-.15.11-.1.16-.19.16-.28,0-.01,0-.04-.02-.06l-.02-.02s0-.02.02-.02c0,.01.02.02.06.02.11,0,.31-.14.6-.41.29-.27.43-.46.43-.56,0-.03.01-.04.04-.04.13,0,.3-.09.53-.27.22-.18.33-.33.33-.44v-.04l-.02-.02s0-.02.02-.02h.06c.07.01.12.02.15.02.16,0,.25-.12.28-.37.01-.07.03-.11.04-.11.01.01.02.03.02.04.03.07.07.11.13.11.01,0,.04,0,.06-.02.03-.01.06-.02.09-.02.07,0,.14.03.21.1.07.06.11.13.11.2,0,.03,0,.06-.02.11l-.02.02c.06,0,.19-.09.41-.28-.01.03-.04.06-.06.11-.09.14-.16.25-.23.31s-.14.1-.23.1c-.17-.04-.26-.09-.26-.15,0-.03.03-.04.09-.04.1-.01.15-.05.15-.11,0-.07-.06-.11-.17-.11-.1,0-.15.05-.15.15,0,.13-.01.25-.04.37-.01.03-.02.05-.02.06,0,.03,0,.04.02.04.03,0,.08-.04.15-.11-.07.24-.22.46-.45.64,0,.01,0,.02-.02.02l-.11-.02s-.06.04-.13.13c-.17.2-.29.3-.37.3-.04,0-.06-.01-.06-.04s.01-.06.04-.09l.02-.06s0-.02-.02-.02c-.03,0-.06.02-.1.05-.04.04-.05.09-.05.16,0,.01,0,.04.02.06.01.04.02.07.02.09,0,.07-.06.14-.17.21-.1.06-.15.11-.15.17,0,.01,0,.04.02.06.01.04.02.07.02.09s0,.02-.02.02l-.04-.02s-.05-.02-.06-.02c-.07,0-.16.06-.28.19-.07.09-.12.13-.15.13-.01,0-.02,0-.02-.02s0-.02-.02-.02c-.03,0-.09.06-.18.19-.09.13-.14.22-.14.28,0,.04.01.06.04.06s.09-.04.17-.11c.13-.1.22-.15.28-.15l.09.04v-.04s-.02-.05-.02-.06c0-.1.1-.19.3-.26.14-.06.24-.14.3-.26.13-.2.38-.44.75-.71.4-.24.64-.44.73-.6.04-.07.13-.14.26-.19.11-.04.53-.31,1.25-.82,1.1-.77,1.72-1.16,1.85-1.16,0,.11-.11.52-.32,1.22-.4,1.26-.6,2.08-.6,2.45,0,.09.01.13.04.13.04,0,.21-.48.49-1.44.24-.82.45-1.46.61-1.94.16-.48.3-.76.42-.83.11-.1.21-.15.3-.15.06,0,.09.02.09.06,0,.03-.01.07-.04.13-.62,1.62-1.1,3.39-1.46,5.33-.36,1.93-.54,3.72-.54,5.37,0,1.48.14,2.64.43,3.48.14.43.42.95.84,1.56.42.61.84,1.14,1.29,1.58.44.44.77.67.99.67.07,0,.14.04.21.11.11.14.34.21.67.21.07,0,.11.01.11.04-.01.01-.02.03-.02.04,0,.1.25.15.75.15.73,0,1.6-.08,2.61-.23,1.01-.15,1.61-.3,1.82-.46.1-.04.24-.11.43-.19.34-.16.52-.26.52-.3,0-.1-.08-.15-.24-.15ZM287.93,54.67c.04-.07.11-.18.21-.32.99-1.55,1.69-2.67,2.09-3.37.41-.7.61-1.18.61-1.44,0-.17-.04-.33-.11-.47-.07-.14-.16-.21-.26-.21-.11,0-.25-.08-.42-.25-.16-.16-.38-.43-.66-.78-.33-.4-.6-.71-.81-.91-.21-.21-.39-.31-.55-.31-.24,0-.53.13-.87.4-.34.27-.78.7-1.34,1.3-.07.09-.24.27-.52.54-1.02,1.03-1.53,1.6-1.55,1.7,0,.03-.06.11-.17.26-.07.06-.11.09-.13.09,0-.01.01-.05.04-.11l.04-.11s-.25.29-.67.88c-.73,1.07-1.14,1.61-1.22,1.61-.04,0-.06-.02-.06-.06.01-.01.02-.03.02-.04.01-.03.03-.06.04-.09v-.02s0-.02-.02-.02c-.1.06-.15.13-.15.21v.04s.02.04.02.06c0,.01-.02.03-.06.04-.07.01-.11.04-.11.09,0,.01,0,.04.02.06.01.03.02.05.02.06,0,.06-.58.78-1.74,2.18s-2.39,2.84-3.7,4.32c-1.3,1.48-2.26,2.5-2.86,3.06-1.13,1.07-2.06,1.81-2.79,2.21-.73.4-1.46.64-2.19.71.04-1.58.54-3.37,1.5-5.37.96-2.01,2.68-4.68,5.16-8.04.04-.06.11-.14.19-.26.63-.84,1.05-1.44,1.26-1.78.21-.34.31-.66.31-.95,0-.4-.23-1.03-.69-1.88-.46-.85-.87-1.28-1.25-1.28s-.81.28-1.35.84c-.54.56-1.32,1.51-2.34,2.86-1.53,2.03-2.74,3.92-3.62,5.65-.88,1.73-1.41,3.29-1.6,4.68-.07.37-.15.56-.24.56-.04,0-.06-.06-.06-.19,0-.14.08-.54.24-1.18.16-.64.28-1.07.37-1.27.11-.29.24-.65.37-1.1.16-.53.34-1.04.56-1.53.21-.49.6-1.19,1.16-2.11.93-1.53,2.41-3.49,4.45-5.87.39-.44.58-.68.58-.71-.01,0-.05.02-.11.06-.1.07-.16.11-.19.11h-.04c-.07,0-.6.62-1.59,1.86-.99,1.24-1.67,2.1-2.04,2.59-1.03,1.42-1.94,3.05-2.72,4.9-.78,1.85-1.17,3.27-1.17,4.28,0,.21.04.32.11.32l.09-.02c.06,0,.09.09.09.28,0,.17-.01.26-.04.26-.01,0-.04-.04-.09-.11-.04-.04-.07-.06-.09-.06-.03,0-.04.17-.04.52,0,.79.1,1.54.31,2.26.21.72.48,1.25.83,1.61.26.27.77.62,1.55,1.03.77.42,1.28.62,1.53.62.33,0,.91-.21,1.75-.64s1.26-.73,1.26-.9c0-.04.02-.06.06-.06h.02c.14,0,1-.82,2.56-2.46,1.56-1.64,2.34-2.57,2.34-2.78,0-.04-.03-.08-.09-.11-.06-.06-.09-.09-.09-.11s.04-.02.11-.02c.1,0,.23-.11.4-.33.16-.22.25-.4.25-.55v-.09s0-.04.02-.04l.04.04h.02c.09,0,.3-.24.64-.71.42-.54.68-.82.79-.82.04,0,.06.05.06.15,0,.07-.02.24-.06.52-.17,1-.26,1.95-.26,2.84,0,1.45.06,2.17.19,2.17.04,0,.06-.09.06-.28,0-.13-.01-.31-.04-.56-.04-.39-.06-.74-.06-1.05,0-.92.08-1.77.24-2.55.16-.78.34-1.41.54-1.9.2-.49.34-.73.43-.73v.02s-.06.24-.17.67c-.44,1.46-.67,2.32-.67,2.58-.01.06-.04.35-.08.88-.04.53-.05.96-.05,1.29,0,1.79.44,3.32,1.31,4.6.87,1.27,2.09,2.16,3.65,2.64.36.11.78.17,1.27.17.69,0,1.38-.11,2.07-.34.69-.23,1.29-.49,1.79-.77.5-.29.75-.46.75-.52s-.06-.09-.17-.09c-.24,0-.66.14-1.25.41-.42.2-.78.35-1.09.46-.31.11-.63.16-.98.16-.83,0-1.61-.38-2.35-1.15-.74-.77-1.11-1.72-1.11-2.85s.35-2.57,1.06-4.22,1.79-3.61,3.25-5.85ZM311.2,47.54c-.62,0-1.09.02-1.42.05-.33.04-.7.09-1.12.16-.47.1-.9.17-1.27.21-1.15.16-2.74.63-4.77,1.42-2.03.79-3.62,1.54-4.77,2.26-.62.39-1.24.83-1.86,1.32s-1.05.87-1.28,1.13c.01,0,.03,0,.04-.02.37-.17.75-.42,1.14-.75.84-.67,2.09-1.44,3.74-2.3.72-.37,1.07-.59,1.07-.64v-.04h-.02l.02-.02s.03,0,.04.02c.03.01.06.02.09.02.2,0,.72-.16,1.55-.48.83-.32,1.25-.52,1.25-.59v-.04l-.02-.02s0-.02.02-.02h.04s.1.04.17.04c.19,0,.41-.03.67-.1s.39-.12.39-.16c0-.03-.04-.06-.13-.09l-.06-.04h.04s.07,0,.17.02c.14.01.24.02.28.02.09,0,.13-.01.13-.04,0-.01,0-.03-.02-.04-.01-.04-.02-.07-.02-.09,0-.04.34-.09,1.01-.15.67-.06,1.06-.09,1.16-.09h.04s-.27.11-.82.24c-2.18.52-4.35,1.28-6.52,2.29s-3.79,2.01-4.87,3c-.34.33-.52.62-.52.88,0,.24.16.67.47,1.27.31.56.52,1.06.62,1.5.01.07.03.12.04.14.01.02.04.03.09.03.09,0,.44-.16,1.07-.47.14-.07.26-.13.34-.17,1.99-.99,4.06-1.89,6.21-2.71s3.76-1.3,4.83-1.46c.14-.01.37-.05.67-.11.52-.1.93-.15,1.25-.15.29,0,.43.04.43.11,0,.06-.12.14-.37.26-.2.1-.3.17-.3.21l.02.02s.02,0,.02.02c0,.06-.21.24-.62.56-.46.34-.69.56-.69.64v.04s-.01.06-.04.06l-.04-.02s-.05-.02-.06-.02c-.11,0-.25.06-.4.17-.15.11-.23.21-.23.28,0,.01,0,.04.02.06v.02s0,.02-.02.02l-.06-.02s-.04-.02-.09-.02c-.1,0-.24.06-.41.19-.6.47-2.31,1.63-5.13,3.46-3.19,2.08-5.13,3.39-5.8,3.93-.63.52-1.21,1.01-1.75,1.49-.54.48-.81.75-.81.81h.02l3.59-2.86s.62-.41,1.83-1.19c1.2-.78,2.57-1.66,4.1-2.64,1.53-.98,2.85-1.83,3.96-2.54,1.11-.71,1.68-1.06,1.71-1.06l.02.02c0,.06-.74.58-2.22,1.58-1.48,1-2.91,1.92-4.29,2.78-3.75,2.38-6.39,4.18-7.91,5.41-1.52,1.23-2.28,2.21-2.28,2.92,0,.26.1.51.3.75.14.14.25.37.32.67.06.2.13.34.21.43s.26.13.52.13c.43,0,1.07-.04,1.91-.13l12.48-2.04-.11-.02s-.11,0-.21.02h-.34c-.3,0-.45-.02-.45-.06.04-.07.25-.11.62-.11.53,0,.83.07.9.21v.02s.02-.06.02-.17c0-.24-.13-.37-.39-.37-.07,0-.19.03-.37.09-.16.03-.26.04-.3.04h-.06c-.49-.07-.85-.11-1.1-.11-.11,0-.19.02-.24.06-.03.03-.07.04-.13.04-.09,0-.13-.02-.13-.06,0-.01,0-.03.02-.04.01-.01.02-.03.02-.04,0-.04-.06-.06-.17-.06-.1,0-.15.03-.15.09h.02v.04s-.07.06-.21.06c-.3,0-.47-.03-.52-.09-.03-.03-.08-.04-.15-.04-.09,0-.23.03-.43.09-.14.04-.24.06-.28.06-.06,0-.09,0-.09-.02,0-.03.09-.1.28-.21.19-.11.29-.17.3-.17.1,0,.21.04.34.13.09.04.14.06.17.06s.06-.02.11-.06c.07-.09.15-.13.24-.13.01,0,.04,0,.09.02.04.01.07.02.09.02.07,0,.13-.03.17-.09.07-.06.16-.09.26-.09.03,0,.08,0,.15.02.09.01.15.02.19.02s.21-.02.52-.06c1.06-.13,1.89-.19,2.49-.19.43,0,.79.04,1.07.11.04.01.07.02.09.02.06,0,.09-.03.09-.09,0-.01,0-.05-.02-.11v-.11c0-.11.02-.17.06-.17.09.01.13.08.13.19,0,.1.04.16.13.19.04.01.06.04.06.06s-.01.07-.04.13l-.02.04.02.02.02-.04c.1-.09.21-.13.32-.13.07,0,.19.01.34.04.2.04.36.06.47.06s.2-.02.26-.06c.03-.04.04-.07.04-.09s0-.02-.02-.02-.06.01-.15.04c-.09.03-.14.04-.15.04l-.02-.02c.11-.1.22-.15.32-.15s.15.05.15.15c0,.03,0,.06-.02.11-.01.03-.02.05-.02.06,0,.09.06.14.19.17.03,0,.04-.02.04-.06,0-.06-.03-.17-.09-.34v-.04c.46.2.69.34.69.43,0,.03-.02.04-.06.04-.03,0-.08-.01-.15-.04-.06-.01-.09-.02-.11-.02-.03,0-.04,0-.04.02,0,.04.02.08.05.12.04.04.1.05.18.05.03,0,.06,0,.11-.02.04-.01.07-.02.09-.02.1,0,.21.08.32.24.04.04.07.06.09.06s.02,0,.02-.02c0-.5-.69-.91-2.06-1.24s-3.02-.48-4.94-.48c-1.13,0-2.41.08-3.85.24-.57.07-.96.11-1.16.11-.19,0-.28-.02-.28-.06,0-.01.42-.25,1.27-.71,1.29-.69,2.34-1.26,3.16-1.73.82-.47,1.22-.76,1.22-.87v-.02s-.02,0-.02-.02.01-.02.04-.02l.06.02c.11,0,.64-.29,1.59-.88.95-.59,1.48-.96,1.61-1.12.09-.1.6-.53,1.55-1.29.16-.13.54-.54,1.15-1.24.61-.69.91-1.07.91-1.13s-.03-.09-.09-.09c-.19,0-.28.16-.28.49-.01.06-.04.09-.09.09-.01,0-.02,0-.02-.02h-.04c-.09,0-.57.43-1.44,1.29-.63.6-.97.9-1.01.9-.07,0-.16.1-.28.3-.11.19-.2.28-.26.28h-.06l-.02-.02s-.07.05-.13.15c-.06.1-.11.15-.15.15-.01,0-.03,0-.04-.02-.01-.01-.03-.02-.04-.02-.04,0-.09.05-.15.15-.06.1-.11.15-.15.15-.01,0-.03,0-.04-.02-.01-.01-.03-.02-.04-.02-.04,0-.09.04-.15.13-.04.1-.09.15-.15.15l-.04-.02s-.05-.02-.06-.02c-.03,0-.05.02-.06.06-.04.1-.11.15-.19.15-.1,0-.16.06-.19.19l-.02.04s-.03,0-.04-.02l-.04-.02c-.07,0-.16.07-.28.21l-.06.04.02-.04.02-.06s-.09.05-.19.15c-.26.21-.42.32-.49.32h-.06s-.03-.02-.04-.02c-.03,0-.04.02-.04.06,0,.07-.86.59-2.57,1.57-1.71.97-2.8,1.58-3.28,1.83-.23.1-.39.21-.47.34-.03.03-.05.04-.06.04s-.04,0-.06-.02c-.03-.01-.05-.02-.06-.02-.03,0-.05.04-.06.11-.01.06-.03.09-.04.09s-.02,0-.02-.02c-.03-.01-.05-.02-.06-.02-.11,0-.36.09-.73.28-.21.11-.34.17-.37.17l-.02-.02s.46-.32,1.38-.84c1.58-.86,3.12-1.75,4.62-2.69,1.5-.93,3.06-2.03,4.66-3.31.97-.77,1.87-1.65,2.67-2.63.81-.98,1.21-1.67,1.21-2.07l-.02-.11.02-.04c.34-.83.52-2.7.52-5.61-.39-.42-.83-.71-1.32-.88s-1.33-.26-2.5-.26ZM341.17,48.68c-.39-.42-.83-.71-1.32-.88s-1.33-.26-2.5-.26c-.62,0-1.09.02-1.42.05-.33.04-.7.09-1.12.16-.47.1-.9.17-1.27.21-1.15.16-2.74.63-4.77,1.42-2.03.79-3.62,1.54-4.77,2.26-.62.39-1.24.83-1.86,1.32s-1.05.87-1.28,1.13c.01,0,.03,0,.04-.02.37-.17.75-.42,1.14-.75.84-.67,2.09-1.44,3.74-2.3.72-.37,1.07-.59,1.07-.64v-.04h-.02l.02-.02s.03,0,.04.02c.03.01.06.02.09.02.2,0,.72-.16,1.55-.48.83-.32,1.25-.52,1.25-.59v-.04l-.02-.02s0-.02.02-.02h.04s.1.04.17.04c.19,0,.41-.03.67-.1s.39-.12.39-.16c0-.03-.04-.06-.13-.09l-.06-.04h.04s.07,0,.17.02c.14.01.24.02.28.02.09,0,.13-.01.13-.04,0-.01,0-.03-.02-.04-.01-.04-.02-.07-.02-.09,0-.04.34-.09,1.01-.15.67-.06,1.06-.09,1.16-.09h.04s-.27.11-.82.24c-2.18.52-4.35,1.28-6.52,2.29s-3.79,2.01-4.87,3c-.34.33-.52.62-.52.88,0,.24.16.67.47,1.27.31.56.52,1.06.62,1.5.01.07.03.12.04.14.01.02.04.03.09.03.09,0,.44-.16,1.07-.47.14-.07.26-.13.34-.17,1.99-.99,4.06-1.89,6.21-2.71s3.76-1.3,4.83-1.46c.14-.01.37-.05.67-.11.52-.1.93-.15,1.25-.15.29,0,.43.04.43.11,0,.06-.12.14-.37.26-.2.1-.3.17-.3.21l.02.02s.02,0,.02.02c0,.06-.21.24-.62.56-.46.34-.69.56-.69.64v.04s-.01.06-.04.06l-.04-.02s-.05-.02-.06-.02c-.11,0-.25.06-.4.17-.15.11-.23.21-.23.28,0,.01,0,.04.02.06v.02s0,.02-.02.02l-.06-.02s-.04-.02-.09-.02c-.1,0-.24.06-.41.19-.6.47-2.31,1.63-5.13,3.46-3.19,2.08-5.13,3.39-5.8,3.93-.63.52-1.21,1.01-1.75,1.49-.54.48-.81.75-.81.81h.02l3.59-2.86s.62-.41,1.83-1.19c1.2-.78,2.57-1.66,4.1-2.64,1.53-.98,2.85-1.83,3.96-2.54,1.11-.71,1.68-1.06,1.71-1.06l.02.02c0,.06-.74.58-2.22,1.58-1.48,1-2.91,1.92-4.29,2.78-3.75,2.38-6.39,4.18-7.91,5.41-1.52,1.23-2.28,2.21-2.28,2.92,0,.26.1.51.3.75.14.14.25.37.32.67.06.2.13.34.21.43s.26.13.52.13c.43,0,1.07-.04,1.91-.13l12.48-2.04-.11-.02s-.11,0-.21.02h-.34c-.3,0-.45-.02-.45-.06.04-.07.25-.11.62-.11.53,0,.83.07.9.21v.02s.02-.06.02-.17c0-.24-.13-.37-.39-.37-.07,0-.19.03-.37.09-.16.03-.26.04-.3.04h-.06c-.49-.07-.85-.11-1.1-.11-.11,0-.19.02-.24.06-.03.03-.07.04-.13.04-.09,0-.13-.02-.13-.06,0-.01,0-.03.02-.04.01-.01.02-.03.02-.04,0-.04-.06-.06-.17-.06-.1,0-.15.03-.15.09h.02v.04s-.07.06-.21.06c-.3,0-.47-.03-.52-.09-.03-.03-.08-.04-.15-.04-.09,0-.23.03-.43.09-.14.04-.24.06-.28.06-.06,0-.09,0-.09-.02,0-.03.09-.1.28-.21.19-.11.29-.17.3-.17.1,0,.21.04.34.13.09.04.14.06.17.06s.06-.02.11-.06c.07-.09.15-.13.24-.13.01,0,.04,0,.09.02.04.01.07.02.09.02.07,0,.13-.03.17-.09.07-.06.16-.09.26-.09.03,0,.08,0,.15.02.09.01.15.02.19.02s.21-.02.52-.06c1.06-.13,1.89-.19,2.49-.19.43,0,.79.04,1.07.11.04.01.07.02.09.02.06,0,.09-.03.09-.09,0-.01,0-.05-.02-.11v-.11c0-.11.02-.17.06-.17.09.01.13.08.13.19,0,.1.04.16.13.19.04.01.06.04.06.06s-.01.07-.04.13l-.02.04.02.02.02-.04c.1-.09.21-.13.32-.13.07,0,.19.01.34.04.2.04.36.06.47.06s.2-.02.26-.06c.03-.04.04-.07.04-.09s0-.02-.02-.02-.06.01-.15.04c-.09.03-.14.04-.15.04l-.02-.02c.11-.1.22-.15.32-.15s.15.05.15.15c0,.03,0,.06-.02.11-.01.03-.02.05-.02.06,0,.09.06.14.19.17.03,0,.04-.02.04-.06,0-.06-.03-.17-.09-.34v-.04c.46.2.69.34.69.43,0,.03-.02.04-.06.04-.03,0-.08-.01-.15-.04-.06-.01-.09-.02-.11-.02-.03,0-.04,0-.04.02,0,.04.02.08.05.12.04.04.1.05.18.05.03,0,.06,0,.11-.02.04-.01.07-.02.09-.02.1,0,.21.08.32.24.04.04.07.06.09.06s.02,0,.02-.02c0-.5-.69-.91-2.06-1.24s-3.02-.48-4.94-.48c-1.13,0-2.41.08-3.85.24-.57.07-.96.11-1.16.11-.19,0-.28-.02-.28-.06,0-.01.42-.25,1.27-.71,1.29-.69,2.34-1.26,3.16-1.73.82-.47,1.22-.76,1.22-.87v-.02s-.02,0-.02-.02.01-.02.04-.02l.06.02c.11,0,.64-.29,1.59-.88.95-.59,1.48-.96,1.61-1.12.09-.1.6-.53,1.55-1.29.16-.13.54-.54,1.15-1.24.61-.69.91-1.07.91-1.13s-.03-.09-.09-.09c-.19,0-.28.16-.28.49-.01.06-.04.09-.09.09-.01,0-.02,0-.02-.02h-.04c-.09,0-.57.43-1.44,1.29-.63.6-.97.9-1.01.9-.07,0-.16.1-.28.3-.11.19-.2.28-.26.28h-.06l-.02-.02s-.07.05-.13.15c-.06.1-.11.15-.15.15-.01,0-.03,0-.04-.02-.01-.01-.03-.02-.04-.02-.04,0-.09.05-.15.15-.06.1-.11.15-.15.15-.01,0-.03,0-.04-.02-.01-.01-.03-.02-.04-.02-.04,0-.09.04-.15.13-.04.1-.09.15-.15.15l-.04-.02s-.05-.02-.06-.02c-.03,0-.05.02-.06.06-.04.1-.11.15-.19.15-.1,0-.16.06-.19.19l-.02.04s-.03,0-.04-.02l-.04-.02c-.07,0-.16.07-.28.21l-.06.04.02-.04.02-.06s-.09.05-.19.15c-.26.21-.42.32-.49.32h-.06s-.03-.02-.04-.02c-.03,0-.04.02-.04.06,0,.07-.86.59-2.57,1.57-1.71.97-2.8,1.58-3.28,1.83-.23.1-.39.21-.47.34-.03.03-.05.04-.06.04s-.04,0-.06-.02c-.03-.01-.05-.02-.06-.02-.03,0-.05.04-.06.11-.01.06-.03.09-.04.09s-.02,0-.02-.02c-.03-.01-.05-.02-.06-.02-.11,0-.36.09-.73.28-.21.11-.34.17-.37.17l-.02-.02s.46-.32,1.38-.84c1.58-.86,3.12-1.75,4.62-2.69,1.5-.93,3.06-2.03,4.66-3.31.97-.77,1.87-1.65,2.67-2.63.81-.98,1.21-1.67,1.21-2.07l-.02-.11.02-.04c.34-.83.52-2.7.52-5.61Z"/>
    </g>
  </g>
  <g id="Personal_website" data-name="Personal website">
    <text class="cls-1" transform="translate(58.08 103.36)"><tspan x="0" y="0">Personal website</tspan></text>
  </g>
</svg>